<?xml version="1.0" encoding="UTF-8" standalone="no"?>
<!DOCTYPE svg PUBLIC "-//W3C//DTD SVG 1.1//EN" "http://www.w3.org/Graphics/SVG/1.1/DTD/svg11.dtd">
<svg width="100%" height="100%" viewBox="0 0 1200 371" version="1.1" xmlns="http://www.w3.org/2000/svg" xmlns:xlink="http://www.w3.org/1999/xlink" xml:space="preserve" xmlns:serif="http://www.serif.com/" style="fill-rule:evenodd;clip-rule:evenodd;stroke-linejoin:round;stroke-miterlimit:2;">
    <g transform="matrix(1.06515,0,0,1.06528,-37.0841,-27.7483)">
        <path d="M242.662,343.938L284.124,320L242.662,296.062L242.662,343.938Z" style="fill:rgb(55,71,79);"/>
    </g>
    <g transform="matrix(1.06515,0,0,1.06528,-37.0841,-27.7483)">
        <path d="M194.201,320L235.662,343.938L235.662,296.062L194.201,320Z" style="fill:rgb(55,71,79);"/>
    </g>
    <g transform="matrix(1.06515,0,0,1.06528,-37.0841,-27.7483)">
        <path d="M246.162,290L287.624,313.938L287.624,266.062L246.162,290Z" style="fill:rgb(55,71,79);"/>
    </g>
    <g transform="matrix(1.06515,0,0,1.06528,-37.0841,-27.7483)">
        <path d="M294.624,313.938L336.085,290L294.624,266.062L294.624,313.938Z" style="fill:rgb(55,71,79);"/>
    </g>
    <g transform="matrix(1.06515,0,0,1.06528,-37.0841,-27.7483)">
        <path d="M298.124,260L339.585,283.938L339.585,236.062L298.124,260Z" style="fill:rgb(55,71,79);"/>
    </g>
    <g transform="matrix(1.06515,0,0,1.06528,-37.0841,-27.7483)">
        <path d="M294.624,253.938L336.085,230L294.624,206.062L294.624,253.938Z" style="fill:rgb(55,71,79);"/>
    </g>
    <g transform="matrix(1.06515,0,0,1.06528,-37.0841,-27.7483)">
        <path d="M298.124,200L339.585,223.938L339.585,176.062L298.124,200Z" style="fill:rgb(55,71,79);"/>
    </g>
    <g transform="matrix(1.06515,0,0,1.06528,-37.0841,-27.7483)">
        <path d="M294.624,193.938L336.085,170L294.624,146.062L294.624,193.938Z" style="fill:rgb(55,71,79);"/>
    </g>
    <g transform="matrix(1.06515,0,0,1.06528,-37.0841,-27.7483)">
        <path d="M298.124,140L339.585,163.938L339.585,116.062L298.124,140Z" style="fill:rgb(55,71,79);"/>
    </g>
    <g transform="matrix(1.06515,0,0,1.06528,-37.0841,-27.7483)">
        <path d="M294.624,133.938L336.085,110L294.624,86.062L294.624,133.938Z" style="fill:rgb(55,71,79);"/>
    </g>
    <g transform="matrix(1.06515,0,0,1.06528,-37.0841,-27.7483)">
        <path d="M190.701,373.938L232.162,350L190.701,326.062L190.701,373.938Z" style="fill:rgb(55,71,79);"/>
    </g>
    <g transform="matrix(1.06515,0,0,1.06528,-37.0841,-27.7483)">
        <path d="M142.239,350L183.701,373.938L183.701,326.062L142.239,350Z" style="fill:rgb(55,71,79);"/>
    </g>
    <g transform="matrix(1.06515,0,0,1.06528,-37.0841,-27.7483)">
        <path d="M138.739,343.938L180.201,320L138.739,296.062L138.739,343.938Z" style="fill:rgb(55,71,79);"/>
    </g>
    <g transform="matrix(1.06515,0,0,1.06528,-37.0841,-27.7483)">
        <path d="M90.277,320L131.739,343.938L131.739,296.062L90.277,320Z" style="fill:rgb(55,71,79);"/>
    </g>
    <g transform="matrix(1.06515,0,0,1.06528,-37.0841,-27.7483)">
        <path d="M86.777,313.938L128.239,290L86.777,266.062L86.777,313.938Z" style="fill:rgb(55,71,79);"/>
    </g>
    <g transform="matrix(1.06515,0,0,1.06528,-37.0841,-27.7483)">
        <path d="M38.316,290L79.777,313.938L79.777,266.062L38.316,290Z" style="fill:rgb(55,71,79);"/>
    </g>
    <g transform="matrix(1.06515,0,0,1.06528,-37.0841,-27.7483)">
        <path d="M34.816,283.938L76.277,260L34.816,236.062L34.816,283.938Z" style="fill:rgb(55,71,79);"/>
    </g>
    <g transform="matrix(1.06515,0,0,1.06528,-37.0841,-27.7483)">
        <path d="M38.316,170L79.777,193.938L79.777,146.062L38.316,170Z" style="fill:rgb(55,71,79);"/>
    </g>
    <g transform="matrix(1.06515,0,0,1.06528,-37.0841,-27.7483)">
        <path d="M38.316,230L79.777,253.938L79.777,206.062L38.316,230Z" style="fill:rgb(55,71,79);"/>
    </g>
    <g transform="matrix(1.06515,0,0,1.06528,-37.0841,-27.7483)">
        <path d="M34.816,223.938L76.277,200L34.816,176.062L34.816,223.938Z" style="fill:rgb(55,71,79);"/>
    </g>
    <g transform="matrix(1.06515,0,0,1.06528,-37.0841,-27.7483)">
        <path d="M34.816,163.938L76.277,140L34.816,116.062L34.816,163.938Z" style="fill:rgb(55,71,79);"/>
    </g>
    <g transform="matrix(1.06515,0,0,1.06528,-37.0841,-27.7483)">
        <path d="M38.316,110L79.777,133.938L79.777,86.062L38.316,110Z" style="fill:rgb(55,71,79);"/>
    </g>
    <g transform="matrix(1.06515,0,0,1.06528,-37.0841,-27.7483)">
        <path d="M86.777,133.938L128.239,110L86.777,86.062L86.777,133.938Z" style="fill:rgb(55,71,79);"/>
    </g>
    <g transform="matrix(1.06515,0,0,1.06528,-37.0841,-27.7483)">
        <path d="M246.162,110L287.624,133.938L287.624,86.062L246.162,110Z" style="fill:rgb(55,71,79);"/>
    </g>
    <g transform="matrix(1.06515,0,0,1.06528,-37.0841,-27.7483)">
        <path d="M90.277,80L131.739,103.938L131.739,56.062L90.277,80Z" style="fill:rgb(55,71,79);"/>
    </g>
    <g transform="matrix(1.06515,0,0,1.06528,-37.0841,-27.7483)">
        <path d="M138.443,104.109L180.201,80L138.706,56.043L138.443,104.109Z" style="fill:rgb(55,71,79);"/>
    </g>
    <g transform="matrix(1.06515,0,0,1.06528,-37.0841,-27.7483)">
        <path d="M142.222,50.01L183.553,74.023L183.684,26.072L142.222,50.01Z" style="fill:rgb(55,71,79);"/>
    </g>
    <g transform="matrix(1.06515,0,0,1.06528,-37.0841,-27.7483)">
        <path d="M190.406,73.943L232.146,50.033L190.668,26.048L190.406,73.943Z" style="fill:rgb(55,71,79);"/>
    </g>
    <g transform="matrix(1.06515,0,0,1.06528,-37.0841,-27.7483)">
        <path d="M242.662,103.938L283.976,80.085L242.662,56.081L242.662,103.938Z" style="fill:rgb(55,71,79);"/>
    </g>
    <g transform="matrix(1.06515,0,0,1.06528,-37.0841,-27.7483)">
        <path d="M194.196,79.829L235.654,103.914L235.588,56.043L194.196,79.829Z" style="fill:rgb(55,71,79);"/>
    </g>
    <path d="M162.306,74.879L66.917,129.764L66.531,240.614L162.306,295.917L258.082,240.621L258.093,130.015L162.306,74.879ZM162.312,110.73C203.463,110.73 236.872,144.144 236.872,185.3C236.872,226.456 203.463,259.87 162.312,259.87C121.161,259.87 87.752,226.456 87.752,185.3C87.752,144.144 121.161,110.73 162.312,110.73Z" style="fill:rgb(249,168,37);"/>
    <g transform="matrix(1.48224,0,0,3.22396,-147.118,-408.026)">
        <ellipse cx="208.759" cy="184.067" rx="21.558" ry="9.913" style="fill:rgb(55,71,79);"/>
    </g>
    <g transform="matrix(0.798019,0,0,0.798118,-199.446,47.1503)">
        <g transform="matrix(1,0,0,1,673.965,302.866)">
            <g transform="matrix(295.023,0,0,295.023,0,0)">
                <path d="M0.133,-0L0.133,-0.677L0.011,-0.677L0.011,-0.81L0.434,-0.81L0.434,-0.677L0.313,-0.677L0.313,-0L0.133,-0Z" style="fill:rgb(55,71,79);fill-rule:nonzero;"/>
            </g>
            <g transform="matrix(295.023,0,0,295.023,131.285,0)">
                <path d="M0.06,-0L0.06,-0.81L0.283,-0.81C0.338,-0.81 0.385,-0.804 0.425,-0.792C0.465,-0.78 0.496,-0.759 0.519,-0.728C0.541,-0.697 0.552,-0.653 0.552,-0.596C0.552,-0.563 0.549,-0.533 0.544,-0.507C0.539,-0.481 0.529,-0.459 0.515,-0.44C0.5,-0.421 0.48,-0.405 0.453,-0.392L0.564,-0L0.379,-0L0.29,-0.363L0.239,-0.363L0.239,-0L0.06,-0ZM0.239,-0.466L0.289,-0.466C0.314,-0.466 0.334,-0.471 0.348,-0.48C0.362,-0.489 0.372,-0.501 0.378,-0.519C0.383,-0.536 0.386,-0.556 0.386,-0.58C0.386,-0.615 0.38,-0.642 0.367,-0.661C0.354,-0.68 0.331,-0.69 0.297,-0.69L0.239,-0.69L0.239,-0.466Z" style="fill:rgb(55,71,79);fill-rule:nonzero;"/>
            </g>
            <g transform="matrix(295.023,0,0,295.023,307.119,0)">
                <path d="M0.06,-0L0.06,-0.81L0.424,-0.81L0.424,-0.688L0.239,-0.688L0.239,-0.487L0.38,-0.487L0.38,-0.363L0.239,-0.363L0.239,-0.121L0.426,-0.121L0.426,-0L0.06,-0Z" style="fill:rgb(55,71,79);fill-rule:nonzero;"/>
            </g>
            <g transform="matrix(295.023,0,0,295.023,438.994,0)">
                <path d="M0.06,-0L0.06,-0.81L0.186,-0.81L0.352,-0.42L0.352,-0.81L0.5,-0.81L0.5,-0L0.379,-0L0.213,-0.42L0.213,-0L0.06,-0Z" style="fill:rgb(55,71,79);fill-rule:nonzero;"/>
            </g>
        </g>
        <g transform="matrix(1,0,0,1,1263.29,302.866)">
            <g transform="matrix(295.023,0,0,295.023,0,0)">
                <path d="M0.275,0.012C0.224,0.012 0.182,0.003 0.148,-0.015C0.114,-0.033 0.088,-0.061 0.071,-0.099C0.054,-0.136 0.044,-0.185 0.042,-0.245L0.195,-0.268C0.196,-0.233 0.199,-0.205 0.205,-0.184C0.21,-0.163 0.218,-0.147 0.229,-0.138C0.239,-0.129 0.251,-0.124 0.266,-0.124C0.285,-0.124 0.297,-0.13 0.303,-0.143C0.308,-0.156 0.311,-0.169 0.311,-0.183C0.311,-0.216 0.303,-0.245 0.287,-0.268C0.271,-0.291 0.249,-0.314 0.222,-0.337L0.152,-0.398C0.121,-0.424 0.095,-0.454 0.075,-0.487C0.054,-0.52 0.043,-0.56 0.043,-0.609C0.043,-0.678 0.063,-0.73 0.104,-0.767C0.145,-0.803 0.2,-0.821 0.27,-0.821C0.313,-0.821 0.348,-0.814 0.375,-0.799C0.401,-0.784 0.421,-0.765 0.435,-0.742C0.448,-0.718 0.458,-0.693 0.463,-0.667C0.468,-0.64 0.47,-0.615 0.471,-0.591L0.317,-0.572C0.316,-0.596 0.315,-0.617 0.313,-0.635C0.31,-0.652 0.305,-0.666 0.298,-0.676C0.291,-0.685 0.279,-0.69 0.264,-0.69C0.247,-0.69 0.235,-0.683 0.228,-0.669C0.22,-0.655 0.216,-0.641 0.216,-0.627C0.216,-0.597 0.223,-0.572 0.238,-0.554C0.252,-0.535 0.271,-0.515 0.294,-0.494L0.361,-0.435C0.396,-0.405 0.426,-0.371 0.451,-0.333C0.475,-0.295 0.487,-0.248 0.487,-0.192C0.487,-0.154 0.478,-0.12 0.461,-0.089C0.444,-0.057 0.419,-0.033 0.388,-0.015C0.356,0.003 0.318,0.012 0.275,0.012Z" style="fill:rgb(249,168,37);fill-rule:nonzero;"/>
            </g>
            <g transform="matrix(295.023,0,0,295.023,146.921,0)">
                <rect x="0.061" y="-0.81" width="0.179" height="0.81" style="fill:rgb(249,168,37);fill-rule:nonzero;"/>
            </g>
            <g transform="matrix(295.023,0,0,295.023,235.723,0)">
                <path d="M0.133,-0L0.133,-0.677L0.011,-0.677L0.011,-0.81L0.434,-0.81L0.434,-0.677L0.313,-0.677L0.313,-0L0.133,-0Z" style="fill:rgb(249,168,37);fill-rule:nonzero;"/>
            </g>
            <g transform="matrix(295.023,0,0,295.023,367.009,0)">
                <path d="M0.06,-0L0.06,-0.81L0.424,-0.81L0.424,-0.688L0.239,-0.688L0.239,-0.487L0.38,-0.487L0.38,-0.363L0.239,-0.363L0.239,-0.121L0.426,-0.121L0.426,-0L0.06,-0Z" style="fill:rgb(249,168,37);fill-rule:nonzero;"/>
            </g>
        </g>
    </g>
</svg>
