<?xml version="1.0" encoding="UTF-8" standalone="no"?>
<!DOCTYPE svg PUBLIC "-//W3C//DTD SVG 1.1//EN" "http://www.w3.org/Graphics/SVG/1.1/DTD/svg11.dtd">
<svg width="100%" height="100%" viewBox="0 0 720 230" version="1.1" xmlns="http://www.w3.org/2000/svg" xmlns:xlink="http://www.w3.org/1999/xlink" xml:space="preserve" xmlns:serif="http://www.serif.com/" style="fill-rule:evenodd;clip-rule:evenodd;stroke-linejoin:round;stroke-miterlimit:2;">
    <g>
        <g id="enso" transform="matrix(0.258261,0,0,0.258261,-10.5652,-19.9791)">
            <path d="M290.7,889.5C288.4,888.6 283.9,888 280.7,888C277.6,888 272.8,887.5 270,886.9C264.9,885.8 243.1,875.1 231,867.7C213.1,856.9 180.9,829.2 171.9,816.7C169.2,813 166.9,809.6 167,809.1C167,808.6 165.2,806.2 163,803.7C160.8,801.2 159,798.8 159,798.4C159,798 156.9,794.5 154.3,790.7C151.8,786.8 148.5,779.9 146.9,775.3C145.3,770.7 142.2,763.4 140,759.2C134.7,749 120.5,717.5 118.9,712.5C118.2,710.3 116.7,706.4 115.4,703.9C112.2,697.6 105.4,680.3 101.5,669C99.7,663.7 97.1,656.3 95.7,652.5C91.1,640.1 86.7,622.7 85.9,614C84.3,596.9 81.9,577.7 81.2,576.6C79.8,574.5 79.1,536.8 80.1,516.5C80.9,500.3 81.4,495.7 83,492.1C84.1,489.7 84.7,487.4 84.5,487.1C84.3,486.7 84.5,481.7 85,476C85.7,468.2 86.3,465.3 87.5,464.7C88.7,464 88.8,463.5 88,462.5C87.2,461.5 87.2,460.9 87.9,460.5C88.5,460.1 88.8,458.9 88.4,457.9C87.6,455.3 89.7,448 91.5,447.3C93.1,446.7 93.5,444 92,444C91.4,444 91,442.9 90.9,441.6C90.9,438.8 94.4,427.5 96.4,424C97.1,422.6 98.3,418.5 99,415C99.7,411.4 100.6,408 101,407.5C101.6,406.6 103.4,400.6 105.6,391.5C106,389.8 106.3,388.2 106.4,388C106.5,387.7 106.9,386 107.3,384.3C107.7,382.6 108.9,380.4 110,379.4C111.1,378.4 112,377 111.9,376.2C111.9,373.8 117.2,358.6 118.6,356.9C119.4,356 119.9,354.4 120,353.4C120,352.3 120.8,349.9 121.9,347.9C123,346 125.4,341.3 127.3,337.5C129.1,333.6 131.6,329.6 132.8,328.5C134,327.5 135,326.1 135,325.4C134.9,323.3 148.1,298.6 150.9,295.5C155.1,290.7 159.5,284.6 160.2,282.7C160.6,281.7 162,280.4 163.4,279.8C164.8,279.1 166,278.2 166,277.7C166,277.3 167.1,275.6 168.5,274.2C169.8,272.7 171,271.2 171,270.8C171,270.4 172.3,268.8 174,267.1C175.6,265.5 177,263.4 177,262.5C177,261.6 177.8,261 178.9,261C179.9,261 181.1,260.1 181.5,259C181.8,257.9 182.4,257 182.9,257C183.3,257 184.3,255.6 184.9,254C185.6,252.3 186.6,251 187.1,251C187.6,250.9 188.5,249.6 189.1,247.9C189.7,246.3 191.4,244.2 192.9,243.5C194.5,242.7 196,240.9 196.3,239.6C196.7,238.2 197.9,236.8 199,236.4C200.1,236.1 200.9,235.2 201,234.4C201,232.7 202.5,232.5 203.5,234C204.7,236 206.3,234.3 207.4,229.9C208.2,226.7 209,225.4 210.6,225C211.8,224.7 213.7,223.3 214.8,221.9C215.9,220.5 218.4,218.5 220.3,217.4C222.3,216.4 224.3,214.3 224.9,212.8C225.4,211.3 227.1,209.4 228.6,208.6C230.2,207.8 233,205.5 234.9,203.5C236.8,201.6 238.9,199.9 239.5,199.9C241.9,199.9 247,196.6 251.8,191.9C253.7,190 259.7,186.9 261.5,186.9C262.2,186.9 263.3,186.3 264,185.5C264.6,184.6 265.9,184 266.9,184C267.8,184 269.3,183.1 270.2,182C271.2,180.9 272.5,180 273.2,180C274,180 276.3,178.4 278.4,176.4C280.5,174.5 283,172.9 284,172.9C284.9,172.9 286.3,172.3 287,171.4C287.7,170.6 290.5,168.8 293.3,167.4C296.1,165.9 298.8,164.1 299.2,163.4C299.7,162.6 300.6,161.9 301.4,161.9C302.1,161.9 303.3,161.3 303.9,160.5C304.6,159.6 305.9,159 306.9,159C307.8,158.9 310.3,158 312.4,156.9C314.6,155.8 317.6,154.9 319,154.9C320.5,155 322.3,154.3 322.9,153.5C323.6,152.6 324.5,152.2 325,152.5C325.4,152.8 326.1,152.5 326.5,151.9C326.9,151.2 327.5,151.2 328.5,152C329.5,152.8 330.9,152.6 334.3,151.1C336.7,150.1 339,148.7 339.4,148.1C339.8,147.5 341.2,147 342.5,147C344.8,147 351.6,144.8 355.2,142.9C356.1,142.4 357.6,142.3 358.4,142.6C359.3,142.9 360.7,142.6 361.6,141.8C362.5,141.1 364.4,140.6 366,140.8C367.5,140.9 370.7,140.5 373.1,139.8C378.6,138.2 379.8,138.1 389,137.5C393.1,137.3 397.9,136.8 399.6,136.5C401.9,136.1 402.9,136.3 403.3,137.4C403.6,138.3 404.7,139 405.7,139C407,139 407.6,139.6 407.5,141.2C407.5,143.1 407.9,143.4 410.4,143.1C412,143 414.3,142.3 415.4,141.7C416.5,141 418.1,140.7 418.8,140.8C419.9,141 420,140.3 419.5,137.5C418.9,134.1 419,134 421.9,134C423.7,134 425,134.5 425,135.2C425,136.4 430.2,139 432.7,139C433.2,139 434,138.1 434.2,137C434.6,135.5 434.3,134.9 432.9,134.9C431.8,134.9 430,134 428.9,132.9C427.8,131.8 426.4,130.9 425.7,130.9C424.9,130.9 424.9,130.6 425.6,129.9C426.2,129.3 428.8,129.2 432.4,129.6C438.1,130.2 438.1,130.3 437.6,133.1C436.8,137 438.9,137.7 443.4,135.1C445.5,133.9 447.7,133.3 448.7,133.7C450.2,134.2 450.3,134.1 449.1,132.6C448.3,131.7 446.6,131 445.3,131C439.9,131 444.2,127.9 451.7,126.4C454.6,125.9 455,126 455,128.2C455,129.5 454.4,131.1 453.8,131.7C450.9,134.6 459.6,137 463.1,134.3C465.3,132.6 473.7,130.7 476.4,131.2C477.9,131.5 479,131.1 479.4,130.3C479.7,129.3 480.5,129.2 482.4,129.9C484.2,130.6 485,130.6 485,129.8C485,129.2 485.9,129 487,129.2C489.6,129.9 489.5,129.1 486.5,126.8C483.3,124.3 483.1,121.9 486.2,122.7C487.4,123 489,123.9 489.8,124.8C491,126.3 491.1,126.3 492.1,124.7C493.1,122.9 497,122.2 497,123.8C497,124.3 496.3,125.3 495.4,126C493.3,127.7 494.6,128.8 500.2,129.8C503.3,130.4 505.2,130.3 505.9,129.6C506.7,128.8 507.2,128.8 507.8,129.7C508.2,130.4 509,130.5 509.9,130C511.6,128.9 527.1,129.7 530.6,131C532.4,131.7 533.6,131.7 534.5,130.9C535.3,130.3 536.4,130.1 537,130.5C537.6,130.9 542.9,131.3 548.8,131.4C556.9,131.5 559.9,131.2 561.2,130.1C562.7,128.9 563,128.9 563.5,130.3C563.9,131.2 565.2,132 566.5,132C567.8,132 569.1,132.4 569.5,133C569.9,133.6 570.7,133.6 571.9,133C573,132.4 574,132.4 574.7,133.1C575.3,133.7 579.5,134.2 584.1,134.4C594.7,134.7 602.8,136.8 604.3,139.7C605.2,141.4 605.8,141.6 607.3,140.8C608.5,140.1 609.5,140.1 610.3,140.8C611,141.4 613.4,141.7 615.7,141.5C618.4,141.2 620.2,141.6 621,142.5C621.6,143.3 622.7,143.6 623.3,143.2C625.1,142 629.2,142 631.7,143.2C633.5,144.1 634.2,144 635.3,142.5C636.4,140.9 636.7,140.9 637.9,142.4C638.6,143.2 639.9,144 640.9,144C641.8,144 644.2,144.8 646.3,145.9C648.4,147 650.7,147.6 651.4,147.3C652.1,147.1 653.2,147.6 653.9,148.4C654.6,149.3 656.2,150 657.5,150C658.7,150 660,150.7 660.4,151.6C660.8,152.7 661.7,153 663.6,152.5C665.6,152 666.5,152.3 667.6,153.9C669.3,156.3 675.1,158.9 678.6,158.9C679.9,158.9 681,159.3 681,159.8C681,160.7 690.7,164 693.7,164C694.8,164 696.3,164.6 697,165.4C697.6,166.3 698.7,166.9 699.2,167C701.4,167 709,171.4 709.5,173C710.2,175.5 714.1,176.9 716.2,175.6C717.6,174.7 718.2,174.8 718.8,175.7C719.3,176.5 720.4,176.7 721.3,176.4C722.5,175.9 723.6,176.4 724.6,177.8C725.4,179 726.7,180 727.5,180C728.3,180 729,180.6 729,181.5C728.9,182.9 730.1,183.8 733.1,184.4C736.6,185.1 739.1,186.9 743.4,191.7C746,194.6 749.2,197.2 750.5,197.5C751.8,197.9 753,198.8 753.3,199.5C753.6,200.3 754.5,201 755.3,201C756.1,201 757,201.5 757.2,202.2C757.6,203.2 758.1,203.2 759.8,202.2C761.5,201.2 762,201.2 762.7,202.4C763.1,203.2 764.4,203.7 765.5,203.6C766.8,203.5 767.5,204.1 767.8,205.7C768.1,207.8 773.2,212.9 775,212.9C775.5,212.9 776,213.5 775.9,214.2C775.9,216.6 782,221.2 786.3,222C788.6,222.4 790.6,222.6 790.8,222.4C791.6,221.6 785.7,214.8 783.4,213.8C782.1,213.2 780.8,211.7 780.5,210.4C780.2,209.1 777.3,206.2 773.9,203.8C770.5,201.4 766.5,198.4 765,197.2C763.4,196 761.7,194.9 761.2,194.9C760.6,194.9 759.6,194.2 758.9,193.3C758.1,192.5 756.6,191.3 755.5,190.8C754.4,190.4 752.8,189.5 752,189C751.1,188.5 748.9,187.6 747.1,186.9C745.2,186.2 743.4,184.6 742.9,183.2C742.4,181.9 741.5,181.1 740.9,181.5C740.3,181.9 739.1,181.2 738.3,180.1C737.5,178.9 736.1,178 735.1,178C734.2,178 732.9,177 732.1,175.9C731.3,174.6 730.2,174 729.1,174.4C727.8,174.8 726.9,174.2 726.1,172.5C725.5,171.1 724.3,170 723.4,170C722.6,170 720.7,169.2 719.2,168.3C717.7,167.3 716.4,166.5 716.3,166.5C716.3,166.5 715.9,165.4 715.5,164.2C714.6,161.2 717.2,161.2 719.6,164.2C720.7,165.5 722.7,166.5 724.3,166.6C726.8,166.7 731,168.3 736,171.1C736.8,171.5 739,172.7 741,173.6C742.9,174.6 745.5,176.1 746.8,177.1C748.1,178.1 749.9,179 750.6,179C751.4,179 753.2,180.3 754.5,181.9C755.9,183.5 759.1,185.8 761.7,187.1C766.3,189.3 768.5,190.8 772.1,194.2C773.1,195.2 774.2,195.9 774.5,195.9C775.8,195.9 781.9,201.5 781.9,202.7C781.9,203.4 783.2,204 784.9,204C786.5,204 788.1,204.4 788.4,204.9C788.8,205.4 791.6,207.3 794.8,209C798,210.7 802.2,213.5 804.1,215.3C806.1,217 809.8,220.5 812.5,223C815.2,225.4 821.1,231.5 825.6,236.5C830.1,241.4 835.7,247.5 838,250C840.4,252.4 843.7,256.7 845.5,259.5C847.3,262.2 852.7,268.6 857.6,273.6C867.3,283.7 868.7,285.4 870.9,290.2C871.8,292.1 873.4,293.6 874.9,293.9C876.6,294.3 878.2,296.1 879.9,299.2C881.3,301.8 883,304 883.7,304C884.4,304 885,304.7 885,305.7C885,306.7 886.1,309.4 887.5,311.8C888.8,314.2 889.9,316.8 890,317.6C890,318.3 890.4,319 891,319C891.5,319 892,319.5 892,320.2C892,320.9 893.5,323.4 895.4,325.8C897.3,328.2 899.2,331.8 899.5,333.8C899.9,335.8 900.7,337.9 901.4,338.5C902.7,339.6 906.9,348 907,349.6C907,350.2 908.6,352.4 910.7,354.5L914.4,358.3L912.2,359.7C909.3,361.6 909.3,362.9 912.2,363C913.4,363 915,363.3 915.6,363.7C916.3,364.1 918.2,370.2 919.8,377.2C921.5,384.2 923.3,390.7 923.8,391.7C927.2,398.3 929.1,403.5 930.5,410C931.4,414.1 933.4,421.6 935,426.6C936.6,431.7 937.7,436.4 937.5,437.1C937.2,437.8 936.8,440 936.6,442C936.3,443.9 936.1,445.8 936.1,446.2C936,446.6 935.2,447 934.3,447C933.1,447 932.9,447.5 933.3,449.2C933.7,450.4 933.9,452 933.9,452.8C933.9,453.5 934.8,453.9 936.1,453.8C939,453.4 940.3,458.2 939.5,465.9C938.4,477 939.2,482.4 942.6,486.1C945.7,489.4 946.9,499.6 944.6,503.2C943.8,504.4 942.9,507 942.6,508.8C942.2,510.7 940.8,513 939.4,514.2C937.7,515.5 937.1,516.5 937.8,517.2C938.3,517.7 938.6,518.8 938.3,519.6C938,520.3 938.2,521 938.7,521C940.6,521 943,528.9 942.4,532.6C942,534.4 941.3,536.2 940.8,536.5C940.3,536.8 940,538.7 940,540.7C940,544.2 939.9,544.2 938,542.4C936.8,541.5 935.9,539.5 936,538.1C936,532.1 935,537.5 934,549C932.7,563.6 930.4,577.8 928.4,583.5C927.7,585.7 926.5,591.1 925.9,595.5C924.5,605.8 922.3,614.4 919.9,619.1C918.8,621.2 917.3,625.3 916.6,628.2C915.7,631.5 914.6,633.6 913.6,633.8C912.5,634 912,633.4 912,632C912,627.9 909.1,629.8 908.4,634.5C907.9,638.1 907.3,639.1 905.4,639.6C903.4,640 903.2,640.4 904.2,642C905.1,643.3 904.9,645 903.6,649C902.7,651.8 902,654.7 902,655.4C902,656.1 901.3,657.3 900.5,658C899.6,658.6 899,660.3 899,661.6C899,662.9 898.5,664 897.9,664C897.3,664 897.2,665 897.6,666.5C898.1,668.8 898,669 895.7,668.4C893,667.7 891.8,668.9 890.2,673.5C889.3,676.2 889.5,676.8 891.1,677.8C892.9,679 893,679.3 891.6,681.4C890.8,682.6 890,685.1 889.8,687C889.6,689 888.7,690.7 887.5,691.3C886.4,692 885.1,692.9 884.7,693.5C883.6,695 883.8,702 885,702C885.6,702 886.8,700.3 887.7,698.2C889.1,695 889.4,694.8 889.7,696.6C889.9,697.8 889.1,700.7 888,703.1C886.9,705.4 886,707.7 886,708.2C885.9,708.6 884.8,710.8 883.4,713.1C881.6,715.9 880.3,716.9 879.2,716.5C878.3,716.1 876.6,716.8 875.2,718.2C873.5,719.8 871.6,720.5 868.5,720.5C864.5,720.5 864.3,720.3 864.3,717.6C864.3,715.7 865.2,714.1 867.1,712.7C868.6,711.6 869.7,710.3 869.4,709.9C868.7,708.8 872,701 873.1,701C873.5,701 874,700 874,698.9C873.9,697.8 875.5,694.4 877.5,691.4C879.4,688.4 881,685.2 881,684.4C881,682.3 882.7,682.6 884,685.1C884.7,686.3 885.5,686.8 886,686.3C887.3,685 885.9,681 884.1,681C882.9,681 882.8,680.7 883.7,679.8C884.4,679.1 885,677.1 885,675.3C885,672.4 884.6,672 882.5,672C880.7,672 879.9,671.4 879.9,670.2C879.9,668.7 874.9,680.8 870.5,693C869.6,695.4 868.6,696.6 866.9,696.8C865.5,697 863.9,697.6 863.3,698.1C862.6,698.7 861.9,698.7 861.5,698.1C861.2,697.6 861.3,697 861.7,696.8C864.1,695.7 873,669.4 873,663.2C873,661.7 873.8,658.8 874.9,656.9C877.7,651.6 879.9,643.2 880,638.2C880,635.8 880.8,630.3 881.9,626C885.1,613.6 889.1,592.9 888.6,591.6C888.3,591 888.1,591.4 888,592.6C888,593.8 887.5,595.1 887,595.4C886.5,595.7 885.6,598.3 885,601.2C884.4,604.1 882.8,608.9 881.4,612C878.3,618.6 876.6,622.6 875.1,626.2C873.7,629.8 872,629.7 872,626.2C872,624.2 871.4,623.3 870.2,623.2C867.4,623 864.4,629.5 860.9,643C860.3,645.4 859.2,648.8 858.5,650.5C857.8,652.1 856.9,655 856.5,656.9C856,658.8 854.2,663.3 852.3,666.8C850.5,670.3 849,674.1 849,675.3C849,676.5 848.3,678.4 847.6,679.5C846.8,680.6 845.7,683.1 845,685.2C843.7,689.3 841.9,690.4 842.6,686.7C842.8,685.5 842,686.5 840.9,689C839.7,691.4 838.5,695 838.2,696.9C837.6,700.3 818.6,729.2 805.8,746.1C799.7,754.1 783,772.7 774.1,781.4C771.2,784.1 769,787 769,787.7C769,788.4 768.5,789 767.9,789C766.6,789 754.2,799.3 751.3,802.8C749.3,805.2 749,805.3 748.4,803.6C747.9,802.3 748.8,800.7 751.7,797.6C753.8,795.3 757.8,790.5 760.5,787C763.2,783.4 768.9,776.8 773.2,772.3C777.5,767.9 781,763.6 781,762.8C781,762.1 786.4,755.6 792.9,748.5C815.3,724.2 825,711.2 826.4,703.7C826.7,701.6 828.4,697.9 830,695.5C831.6,693.1 832.9,690.5 833,689.8C833,689 834,686.4 835.3,683.9C836.6,681.5 839.6,674.5 841.9,668.5C844.2,662.4 847,655.2 848,652.5C849.1,649.7 850.8,644.4 851.9,640.6C853,636.8 854.4,633.1 855,632.4C855.6,631.6 856,628.9 855.9,626.2C855.7,623.6 855.9,620.3 856.3,618.9C856.8,617.4 857.2,613.6 857.4,610.4C857.6,607.1 858.7,600.9 859.9,596.5C862.6,586.1 863.5,568.5 862.1,550.5C861.5,542.8 860.5,530.4 860,523C859.4,515.5 858,503.6 856.9,496.5C855.8,489.3 854.3,478.7 853.6,472.8C852.8,467 851.5,460.8 850.6,459C849.7,457.2 849.2,455.4 849.5,454.9C849.9,454.2 848.7,451.3 846.5,448C844.6,445.2 843.2,439.9 843.7,438C843.9,436.9 843.3,434.9 842.1,433.4C839.9,430.6 836.7,421.9 836.5,418.2C836.4,417 835.5,415 834.3,413.7C833.2,412.5 832,410.6 831.7,409.5C829.7,402.7 825.1,391.8 820.8,384C819.7,382 817.5,377.5 815.7,374C814,370.4 811.6,366 810.3,364.1C809,362.2 807.9,359.8 808,358.8C808,357.7 807.3,356.7 806.6,356.4C805.8,356.1 804.2,353.4 802.9,350.4C801.7,347.4 800.2,345 799.7,344.9C799.2,344.9 798.2,343.5 797.3,341.7C796.5,339.9 795.2,337.4 794.5,336.1C793.8,334.8 792.8,331.3 792.5,328.3C792,324.8 791.3,323 790.5,323C789.7,323 788.6,321.3 787.9,319.2C787.2,317.1 785.6,313 784.2,310.1C782,305.4 781,304.4 776.3,302.4C773.4,301 771,299.3 771,298.5C771,297.7 769.4,295.9 767.5,294.4C765.6,293 762.8,289.8 761.2,287.4C759.7,284.9 758.1,283 757.6,283C757.1,283 755.6,281.7 754.1,280.2C752.6,278.7 749.1,275.9 746.2,274C743.3,272 740,269 739,267.2C737.9,265.4 736.4,263.9 735.5,264C734.7,264 733.5,263.1 732.7,262C732,261 729.3,259 726.9,257.8C721.4,255 718.1,252.6 712.6,247.8C710.3,245.9 707.2,243.9 705.6,243.6C704.1,243.2 701.7,241.8 700.4,240.5C697.8,237.9 694.8,236.1 688.5,233.4C686.3,232.5 683.3,230.7 682,229.4C679.1,226.8 671.9,223.4 667.2,222.4C665.4,222.1 663.5,220.9 662.9,219.9C662.3,218.8 661.1,217.9 660,217.9C659,217.9 657.7,217.3 657,216.5C656.4,215.7 654.1,214.8 651.9,214.4C649.7,214.1 647.7,213.4 647.4,212.9C647.1,212.4 645.9,212 644.7,212C642.8,212 637.1,209.7 631,206.5C629.6,205.8 626.9,204.9 625,204.5C623,204.1 618.4,202.9 614.7,201.8C610.9,200.6 607,200 605.9,200.3C604.7,200.6 602.2,200.1 600.2,199.3C598.2,198.4 593.5,197.8 589.1,197.8C584.9,197.8 579.5,197.1 577,196.3C574.6,195.5 570.6,194.9 568,194.9C561.8,194.9 558.6,194.5 556.9,193.4C556.1,192.9 553.2,192.4 550.5,192.3C530.6,191.4 518.3,191.3 517.4,192C516.8,192.5 512.8,192.9 508.4,193C504,193.1 498.2,193.8 495.5,194.5C492.7,195.2 487.1,196.3 483,197C479,197.6 474.1,198.8 472.3,199.6C470.5,200.3 467.4,200.9 465.4,200.9C463.3,200.9 460.3,201.8 458.6,202.8C456.9,203.9 452.8,205.5 449.5,206.4C435.3,210.4 433.5,211.1 432,212.4C431.1,213.2 425.5,216.3 419.4,219.3C413.3,222.4 407.7,225.6 407,226.4C406.3,227.3 405.2,227.9 404.5,227.9C402.5,227.9 391,234 391,235C391,235.5 389.8,235.9 388.4,235.9C387,235.9 384.7,237.1 383.3,238.5C382,239.9 380.4,240.7 379.9,240.4C378.7,239.7 372.9,242.9 371.1,245.2C370.3,246.4 369.1,246.8 367.9,246.4C366.3,245.9 366,246.3 366,248.3C366,250.3 365.4,250.9 363.2,251.1C361.2,251.4 360.1,252.3 359,254.7C357.5,258.2 356.1,258.6 352.7,256.8C350.9,255.9 350.3,256.1 348.7,258.3C347.6,259.8 345.1,261.4 342.8,262C339.7,262.8 338.8,263.6 338.3,265.8C337.8,268.5 333.3,271.9 330.3,271.9C329.5,272 328.2,273.5 327.4,275.4C325.5,280 322,283.1 319.8,282.4C318.4,282 317.7,282.5 316.9,284.5C316.3,286.2 315.4,287 314.5,286.6C313.7,286.3 312,287.5 310.5,289.5C309,291.4 306.3,293.6 304.4,294.4C301.7,295.5 301,296.4 301,298.5C300.9,299.9 300.4,301.6 299.7,302.3C297.1,304.8 290.4,309.6 288.8,310.2C287.9,310.6 286.3,312.4 285.4,314.4C284.5,316.3 283.1,318 282.3,318C281.6,318 281,318.4 281,319.1C281,319.7 279.7,321.8 278.1,323.8C276.5,325.8 274.2,329.4 272.8,331.7C271.5,334.1 269.7,335.9 268.7,335.9C266.8,336 264.9,338.8 265,341.9C265,343 264.5,344 264,344C263.5,344 262.1,345.5 261,347.5C259.8,349.4 258.1,351 257.4,351C256.6,351 256,351.8 256,352.9C256,354 255.5,355.1 255,355.4C254.4,355.8 254,357.1 254,358.4C254,361.6 250.2,366.2 248.1,365.5C246.2,364.9 244,368.9 244,373C244,375.8 242.5,380.9 240.7,384.7C240.1,385.9 239.9,387.2 240.2,387.6C240.6,387.9 240.2,389.5 239.4,391C238.6,392.6 238,394.8 238,395.9C238,397.3 237.3,398 236,398C234,397.9 233.3,399.9 232.5,407.4C232.4,409.2 231.5,410.6 230.2,411C228.7,411.6 228,413.1 227.5,417.4C227.1,420.4 226.4,423 225.8,423C225.3,423 225.1,423.9 225.5,425C225.9,426.3 225.6,427.2 224.5,427.6C223.7,427.9 222.9,428.7 222.9,429.3C222.9,429.9 221.8,432.7 220.5,435.5C218.8,438.8 218,442.2 218,446C217.9,449 217.5,453.3 216.9,455.5C215,462.9 213.9,469.4 213,477.8C212.5,482.3 211.6,486.7 210.9,487.5C210.3,488.2 210.1,489.4 210.5,490C210.9,490.6 211.1,495.1 211,500C210.8,514.1 215.7,559.8 218.6,570.9C220,576.1 221.5,582 221.9,584C223,589.2 224.4,591.2 227.3,591.5C230.5,591.9 230.9,589.2 228.1,586.8C226.7,585.6 226.1,583.2 225.5,577.1C225.1,572.6 224.4,567.5 223.8,565.7C223.2,563.9 222.4,552.8 221.9,541C221.5,529.1 221,519 221,518.5C220.7,515 223,489.6 223.9,485.5C225.2,479.9 226.8,471.5 227.5,465.6C227.8,463.5 228.5,459.7 229,457.3C229.5,454.9 230.4,450.9 230.9,448.4C231.5,445.9 232.2,443.4 232.5,442.8C232.9,442.3 232.6,441.3 232,440.5C231.4,439.8 231.1,438 231.4,436.5C231.7,435.1 232.2,432.9 232.4,431.6C232.7,430.3 233.8,429 234.8,428.7C235.8,428.4 236.9,427.1 237.3,425.8L237.9,423.5L236,425.8C234.9,427.4 233.8,427.9 233,427.5C232,426.9 232.2,426.2 233.9,425C235.3,423.9 236.3,421.8 236.7,419.1C237,416.8 238,414.3 238.9,413.7C239.8,413 240.9,411.7 241.2,410.7C241.6,409.7 242.8,409 243.9,409C245.2,409 246.4,408 247,406.4C248.4,402.6 248.2,402.5 245.5,405.6L243,408.5L243,404.9C243,402.5 243.9,400.1 245.7,397.6C249,393.3 249.8,393.1 249.2,396.7C248.8,399.4 248.9,399.4 250.4,397.5C251.3,396.4 252.3,394.3 252.6,393C252.8,391.6 253.5,389.8 254,389C255.2,387.1 255.3,386.8 257.4,380.5C258.4,377.7 259.4,373.9 259.6,372C260.3,366.8 262.9,362 267.6,357.1C270,354.7 272,351.5 272.1,350.1C272.4,347.9 273,347.4 275.7,347.1C278.3,346.9 279.8,345.7 283,341.6C285.2,338.8 288.1,335.2 289.5,333.8C290.8,332.3 291.9,330.8 292,330.6C292,330.3 294.6,327.2 297.9,323.8C301.2,320.3 305.3,315.9 307,314C313.8,306.6 325.5,297 327.7,297C332.2,296.9 330.4,301.2 323,308.4C319.1,312.1 316.1,315.6 316.2,316.2C316.3,316.8 316,317.4 315.5,317.4C313.5,317.5 312,319.1 312,320.8C312,322.6 305.6,328.9 303.7,329C301.6,329 298,333.5 298,336.4C298,339.1 298,339.2 299.8,337.6C300.8,336.7 302.1,335.9 302.7,335.9C303.4,336 304.4,334.9 305.1,333.7C305.7,332.5 307.9,329.9 310,327.9C312,326 314.4,322.9 315.3,321.2C316.3,319.4 317.5,317.9 318,317.9C318.6,317.9 321.9,315 325.4,311.4C328.9,307.9 332.2,304.9 332.8,305C333.3,305 334.2,303.7 334.9,302.1C335.7,300.1 337.3,298.8 340,297.9C342.2,297.2 344.5,296 345.1,295.3C345.7,294.6 346.6,294 347.1,294C347.7,294 350.2,292.2 352.8,290C355.4,287.8 358.2,286 359,286C360.8,286 366.9,280.5 367,279C367,278.4 368.3,277.9 370,277.9C374.5,277.9 380.3,275.1 386.7,269.7C388.5,268.2 390.9,267 392,267C393.1,267 395.7,265.8 397.7,264.5C399.7,263.1 401.6,262.3 402.1,262.5C403.1,263.2 408.2,260.6 409.9,258.6C410.9,257.4 411.5,257.3 413,258.2C414.4,259.1 415.2,259 416.3,258.1C417.2,257.4 418.3,257.1 418.9,257.4C419.5,257.8 419.9,257.6 419.9,257C420,255.7 426.7,252.3 427.6,253.2C427.9,253.6 427.7,254.6 427,255.5C426.2,256.3 425.9,257.2 426.2,257.5C426.9,258.2 443,249.9 443,248.8C443,247.6 451.7,247.7 452.5,249C453.4,250.5 454.7,250.1 454.6,248.2C454.4,246.3 457.9,245.2 458.9,246.9C459.4,247.7 460.4,247.7 462.2,247.1C464.2,246.3 464.6,245.6 464.2,243.5C463.5,239.7 466.7,238.9 469.2,242.3C470.9,244.6 471.6,244.8 475.8,244.4C482.5,243.8 491.3,241.9 492.6,240.8C493.2,240.4 497.4,239.7 502.1,239.5C514.2,238.8 514.1,238.8 518.3,237.7C521.3,237 522.4,237.1 523.1,238.1C523.7,239.2 524.3,239 526,237.3C528,235.4 528.4,235.3 531.1,236.7C533.2,237.7 536,238 541.2,237.6C552.1,236.8 554.6,236.9 561.9,238.4C566.4,239.4 569.8,239.6 572.5,238.9C575.6,238.2 576.8,238.4 578.2,239.7C579.4,240.8 582.3,241.4 587.2,241.6C591.7,241.7 594.8,242.3 595.4,243.1C596,243.9 598.3,244.4 600.5,244.4C603,244.4 605.1,245 606.3,246.2C607.3,247.3 608.8,247.8 609.5,247.6C610.3,247.3 611.2,247.5 611.5,248C611.8,248.5 612.9,249 613.9,249C614.9,249 620.2,250.8 625.6,253.1C631,255.3 636.8,257.4 638.5,257.7C640.1,257.9 642.2,258.6 643.1,259C644.1,259.5 645.9,260 647.3,260C648.6,260 650,260.6 650.3,261.5C650.6,262.3 651.5,262.9 652.2,262.9C654.8,262.9 669.5,269.3 671.2,271.2C672.1,272.2 673.3,272.8 673.8,272.5C674.3,272.2 675.3,272.6 676,273.5C676.6,274.3 677.7,274.9 678.4,274.9C679.1,275 680.5,275.9 681.5,277C682.6,278.2 684.1,278.9 685.2,278.6C686.3,278.3 687.5,278.9 688.2,280C688.9,281.1 689.9,281.9 690.5,282C691.1,282 692.5,282.9 693.5,284C694.4,285.1 695.8,286 696.5,286C697.3,286 698.4,286.8 699.1,287.8C699.9,288.8 702.5,290.4 705.1,291.4C708.8,292.8 709.9,293.7 710.3,295.9C710.7,298.2 711.3,298.6 713.2,298.2C716.4,297.6 722,302.3 722,305.5C722,307.2 722.7,307.9 724.7,308.4C726.3,308.7 728.6,310.4 730,312C731.3,313.6 733.2,315 734.1,315C735,314.9 736.5,316.5 737.4,318.4C738.3,320.4 740.3,322.6 741.9,323.4C743.5,324.3 745.1,325.8 745.4,326.9C745.8,328 746.9,329.1 747.8,329.4C748.8,329.7 750.1,331.1 750.7,332.4C751.3,333.7 753.1,335.4 754.6,336.1C756.1,336.9 757.9,338.4 758.5,339.5C759.1,340.6 761.9,343.8 764.7,346.8C767.5,349.7 770.1,352.9 770.5,354C770.8,355.1 771.7,356 772.4,356C773.2,356 774.2,357.3 774.8,359C775.4,360.6 776.3,362 776.8,362C777.3,362 778.9,364.5 780.3,367.5C783.3,373.7 783.9,374.5 789.2,379.7C791.3,381.6 793,384.1 793,385.1C793,386 793.4,387.1 794,387.5C794.5,387.8 795,388.9 795,390C795,391.1 795.4,392 796,391.9C796.6,391.9 797.7,393.4 798.6,395.2C801.1,400.6 803.5,404.7 806.1,408.2C808.7,411.5 813.1,420.5 814.5,425C814.9,426.3 816.4,430.2 817.9,433.5C819.4,436.8 821.5,441.9 822.4,445C823.4,448 824.6,451 825.1,451.6C825.6,452.2 825.9,453.1 825.8,453.6C825.6,454.1 826,455.4 826.7,456.5C827.8,458.5 829.5,464.6 832.5,477.5C833.3,480.8 833.7,484.7 833.4,486.2C833,487.8 833.2,489.6 833.8,490.2C834.7,491.3 835.2,497.1 836.6,519.5C836.9,523.9 837.2,537.9 837.3,550.6C837.4,570.9 837.2,573.9 835.9,574.8C834.7,575.5 834.1,578.1 833.7,584.8C833.3,590.2 832.5,594.7 831.6,596.1C830.8,597.4 829.8,600.2 829.4,602.3C828.9,604.8 828,606.4 826.9,606.7C825.7,607 824.1,610.6 821.5,618.8C816.5,634.1 807.3,654.8 800.3,666.2C797.2,671.3 794,676.8 793.1,678.5C792.3,680.1 791.2,682.1 790.8,683C789,686.3 786.1,691.6 784.6,694.6C783.6,696.3 781.8,698.5 780.4,699.4C779.1,700.3 778,701.8 778,702.8C778,703.8 776.3,706.1 774.4,708C772.4,709.9 768.9,714.1 766.6,717.3C763.1,722.3 759,727.4 756.2,730.2C746.5,739.9 738.6,746.9 736.2,748C734.4,748.8 732.9,749.9 732.7,750.5C732.4,751.6 708.7,773.6 701.9,779.1C696.6,783.4 690.1,787 687.8,787C686.8,787 685.8,787.4 685.5,788C684.7,789.2 683,789.3 683,788C683,786.1 691.9,776.8 697.8,772.5C700.1,770.9 705.4,765.8 709.7,761.1C713.9,756.4 722.5,747.2 728.7,740.7C734.9,734.1 740,728.4 740,727.9C740,726.6 738.2,726.7 737.5,728C737.1,728.5 735.4,729 733.7,729C730.7,729 730.7,728.9 732.4,727C733.5,725.8 733.9,724.4 733.5,723C732.5,720 735.2,714.9 739.7,710.8C741.8,708.9 744.1,705.9 744.8,704.2C745.5,702.6 747.5,699.9 749.1,698.3C750.8,696.7 753.6,693.2 755.4,690.5C757.2,687.7 759.9,684.2 761.3,682.6C762.8,681.1 763.9,679.1 764,678.3C764,677.4 766.2,673.4 768.9,669.3C771.6,665.2 774.2,660.4 774.5,658.5C774.9,656.5 775.8,655 776.9,654.7C778.1,654.3 779,652.8 779.4,650C779.8,647.6 781,644.9 782.1,643.8C783.1,642.8 783.9,641.1 784,640.1C784,639.1 784.9,637.2 786,635.9C787.9,633.7 788.1,633 788.3,628C788.4,626.6 789,625.6 789.6,625.7C790.3,625.8 791.1,624.9 791.5,623.7C793.3,617.4 793.3,617.6 791.1,618.2C789.9,618.5 789,618.4 789,617.9C788.9,615.4 792.6,608.2 794.8,606.4C796.7,604.8 797.1,603.7 796.6,601.7C796.2,600.2 796.8,596.9 798,593.3C799.1,590.1 801.2,581 802.5,573.1C804.6,560.9 805,555.6 804.9,536.5C804.9,500.8 803.2,489.3 794,462.5C784.9,436.3 780,425.2 773.4,416C771.6,413.5 767.9,408.1 765.1,404C760,396.4 753,388.6 743,379.4C736.2,373.3 716.9,351.5 716.9,350C717,348.4 717.7,348.7 722.6,352C730.7,357.6 738.9,365 740.5,368.1C741.4,369.7 744.5,373.8 747.5,377C750.5,380.3 753,383.3 753,383.7C753,384.1 755.5,387.2 758.5,390.5C763.6,396 764,396.2 763.4,393.5C763.1,391.8 761.6,388.9 760.2,387C755,379.9 742,365.3 735.8,359.3C732.3,356 727.5,350.9 725,348C721.4,343.7 697.4,321.7 685.6,311.8C682.3,309.1 663.5,298 662.2,297.9C661.8,297.9 658.8,296.6 655.7,294.9C646.9,290.3 635.3,285.4 616.3,278.5C585.5,267.2 571.9,264.9 530,264.2C498.4,263.7 486.1,264.7 469.3,269C465,270.1 460.9,270.8 460.2,270.5C459.5,270.2 457.5,270.9 455.7,271.9C453.9,273 446.4,276 439,278.8C408.1,290.2 385.3,301.7 367.5,315C354.7,324.5 333.2,345.4 325.1,356.3C305.7,382.2 290.4,414.9 284.9,442.4C283.8,447.9 281.8,457 280.5,462.5C278.3,471.8 276.7,486.3 275.5,509.5C275.1,515 275.3,527.1 275.9,536.5C276.9,554.4 280.3,571.5 287,593.5C289.8,602.4 300.9,628.9 303,631.5C303.4,632 306.8,638 310.4,644.8C325.7,673.6 335.3,684.4 360.7,701.3C375.7,711.3 386.1,720.2 391.1,727.5C392.4,729.3 394.4,731.3 395.6,731.8C396.8,732.4 398.6,734 399.5,735.4C400.4,736.8 401.7,738 402.4,738C404.1,738 407,741.3 407,743.2C407,744.1 408.1,746.1 409.5,747.8C410.8,749.4 412,751.2 412,751.8C412,753.4 408.8,753.2 406.3,751.5C405.2,750.7 403.9,750.3 403.6,750.7C402.6,751.7 402.9,757.1 404.3,762.5C405.3,766.4 406,767.5 407.9,767.8C411,768.2 414.4,775.9 413.6,780.7C413,784.5 410.5,788 408.3,788C406.7,788 404.9,791.1 405,794C405,795.5 403.9,796.5 401,797.7C395.6,799.8 395.8,801.4 401.4,800.6C403.9,800.3 406.1,800.4 406.4,800.9C407.3,802.3 413.2,798.9 412.6,797.4C411.3,794 410.8,789 411.8,789C413,789 413.7,791 414.9,797.7C415.4,800.3 416.7,806.1 417.9,810.5C420.4,819.3 420.2,827.6 417.5,832.9C415.4,836.9 409.7,840.2 404.3,840.4C401,840.5 399.2,841.3 397.2,843.2L394.5,845.9L396.7,850.5C398,853 399,856.9 399,859.4C399,865.5 396.5,867.2 389,866.4C385.1,866 382.1,866.3 379.1,867.4C371.7,870 362.3,870.4 352,868.5L342.7,866.8L338,871.7C333.8,876.1 328.6,879.3 318,883.8L315.5,884.8L318.1,884.9C319.6,884.9 321.1,885.4 321.5,886C322.5,887.7 319.3,888.1 315.8,886.7C312.7,885.4 312,885.5 307.2,887.6C300.1,890.8 295.8,891.2 290.7,889.5M288,732.8C286.7,731.2 286.7,730 287.9,730C288.4,730 289.3,730.9 289.9,732C291.1,734.2 289.6,734.8 288,732.8M281,725.1C279.3,723.6 278,721.6 278,720.7C278,719.6 277.3,719.3 275.8,719.7C274.3,720.1 273.9,719.9 274.4,719.1C274.8,718.4 274.1,716.8 272.7,715.4C271.3,714 270.2,711.6 270.1,709.7C269.9,707.9 269.8,705.3 269.6,704C269.5,702.3 270,701.5 270.9,701.5C271.7,701.5 272.4,702.4 272.4,703.5C272.4,705.4 273.6,707.2 279.2,714.6C280.7,716.6 282,719.3 282,720.6C282,721.9 282.9,723.5 284,724.2C286,725.5 286.7,728 285,728C284.4,728 282.6,726.7 281,725.1M167.5,720.2C166.8,719.2 158.9,703.8 150.1,685.9C132.9,651.1 124.1,628.7 126.9,627C128,626.3 127.5,624.2 124.2,615.8C116.3,596 114.9,586.3 114.3,551C113.8,524.7 115.6,499.7 119.5,476.7C120.9,468.5 128.3,441.3 129.4,440.1C130.4,439.2 130,441.4 126.5,457C118.3,494.1 117.1,543.6 123.4,586.7C124.8,596.2 126.2,605.2 126.5,606.7C128.5,615 135.5,637.1 139,645.6C141.3,651 146.6,664.7 150.9,676C155.2,687.2 160.6,700.7 163,706C169.1,719.8 170,722 169.5,722C169.2,722 168.3,721.2 167.5,720.2M882.7,705.5C884.6,704 885.5,704.2 884.6,705.9C884.2,706.5 883.3,707 882.5,707C881.2,707 881.3,706.7 882.7,705.5M245.9,665.8C243.8,661.8 237.8,647.4 235.4,641C234.1,637.4 231.9,631.6 230.5,628.2C228.8,624.2 227.9,620.5 228.1,618.2L228.5,614.5L230.6,617.8C231.8,619.6 233.5,623.7 234.4,626.8C235.3,629.9 237.1,634.7 238.4,637.5C243.4,648.2 247.8,659.6 248.3,663.7C249,668.3 247.7,669.4 245.9,665.8M884,654C884,653.5 885.9,646.4 888.4,638.3C890.8,630.1 894,618.7 895.5,613C897,607.2 898.9,601.7 899.6,600.9C901.5,598.7 903.9,587.2 904.9,575C905.8,564.5 905.8,564.5 905.4,579C904.8,598.4 900.1,618.8 892.7,633.4C890,638.8 889.8,640 890.3,645.7C890.8,651.5 890.7,652 888.9,652C887.8,652 886.7,652.6 886.4,653.5C885.9,655.1 884,655.5 884,654M896.7,648L894.5,646.1L897.3,645C900.9,643.6 901,643.6 901,646C901,649.3 899.2,650.2 896.7,648M911.4,622.3C910.9,620.6 912.8,612.4 913.5,613.3C913.8,613.7 913.5,616.2 913,619C912.4,621.7 911.7,623.2 911.4,622.3M237,585.2C237.1,581.9 237.2,581.7 238,584C239.1,587.5 239.1,589 238,589C237.4,589 237,587.3 237,585.2M893.6,555.7C894.4,526.3 892.8,497.4 889.3,479.1C887.9,471.8 887,464.9 887.3,463.7C887.6,462.6 886,456 883.8,449.1C881.6,442.2 878.3,431.3 876.5,425C874.6,418.6 871.3,409.6 869.2,404.9C865,395.8 861.5,386.1 862.2,385.4C862.9,384.7 883.7,428.2 887.4,438.1C889.3,443.5 891.4,450.9 891.9,454.6C892.5,458.4 893.7,466.4 894.6,472.5C895.9,481.5 896.2,491.3 896.1,528.4C896,573.6 895.8,579 894,579C893.3,579 893.2,571 893.6,555.7M233,563.5C233,562.2 232.5,560.8 231.9,560.4C230.9,559.8 231.5,558 232.8,558C233.9,558 236.7,563.3 236.3,564.7C235.6,567 233,566.1 233,563.5M881,537.2C881,534 880.1,525.6 879,518.5C877.9,511.3 876.6,500.3 876,494C875.4,487.6 872.4,470.1 869.4,455.1C866.3,440.1 864,427.2 864.3,426.6C865.1,424.3 868.1,433.8 873.5,455.4C880.8,484.8 882.1,495.5 881.5,522C881.2,533.5 881,540.4 881,537.2M919,515.3C919,512.2 918.3,505.4 917.5,500.1C916.7,494.8 915.6,482.6 914.9,473C914.1,459.4 913.2,453.1 911,445C909.4,439.2 906.7,429.1 904.9,422.5C900.9,407.7 894.2,391.7 886.1,377.4C882.7,371.5 880,366.2 880,365.6C880,362.6 900,394.1 903.9,403.4C910.3,418.4 917.6,452.2 917.8,468C917.8,473.7 918.6,485.2 919.4,493.5C921.2,510.9 921.4,519.7 920,520.5C919.3,520.8 919,518.7 919,515.3M233.5,514.5C231.9,509.9 231.9,509.7 233.5,510.3C234.4,510.7 235.5,511 235.9,511C237.8,511 237.8,514 236,515C234.4,515.7 233.8,515.6 233.5,514.5M232,499C232,495.7 233.7,494 235,496.1C236.7,498.7 236.1,502 234,502C232.4,502 232,501.3 232,499M235,481.4C235,480.6 234,479.5 232.8,479.1C231,478.4 230.9,478.2 232.2,477.7C233.2,477.3 234.1,475.3 234.5,472.5C234.9,469.6 235.7,468 236.6,468C238.2,468 238.4,466.8 237,465.4C235.9,464.3 237.7,458 239.3,456.8C239.8,456.5 239.7,455.4 239.2,454.4C238.6,453.3 238.6,451.4 239.1,449.1C239.7,447.1 240.5,443.5 241,441.2C241.5,438.9 242.8,435.1 243.9,432.8C245,430.5 246,428 246,427.3C246,426.6 247.3,422.9 248.9,419.2C250.5,415.5 252,411.6 252.4,410.6C252.7,409.6 253.8,408.5 254.8,408.3C256.4,407.9 256.6,407.1 256.2,403.4C255.7,398.7 257.2,395.5 259.6,396.4C261.5,397.1 264.3,391 262.8,389.3C261.9,388.2 261.9,387.6 262.8,386.7C263.7,385.8 264,385.9 264,386.8C264,387.5 264.4,387.8 265,387.4C265.6,387 265.9,385.5 265.8,384C265.6,382.4 266,380.1 266.6,378.8C267.3,377.5 268.1,375.6 268.5,374.5C269.2,372.5 269.2,372.5 269.9,374.4C270.9,377.1 270.3,387.4 269,389.9C268.4,390.9 268,392.7 268,393.8C268,394.8 267.3,396.3 266.5,397C265.6,397.6 264.9,398.9 264.9,399.8C264.9,400.7 263.3,403.9 261.4,407C259.5,410 257.7,413.1 257.4,414C257.1,414.8 255.3,416.6 253.4,417.8C249.8,420.3 249.2,421.4 251,422.5C252.2,423.2 252.3,428 251.1,428C250.7,428 250.2,429.6 250.1,431.7C249.9,438.4 242.2,460.4 239.9,461.1C239.2,461.4 239.1,462.9 239.8,465.9C240.5,469 240.5,470.8 239.8,471.7C239,472.6 239,473 239.8,473C240.4,473 241,473.9 241,475C241,476.1 240.3,477 239.5,477C238.6,477 237.3,478.3 236.5,480C235.6,481.6 235,482.3 235,481.4M233.3,435.9C233,435.3 233.2,434.3 233.8,433.7C234.7,432.8 235,433.1 235,434.8C235,437.1 234.3,437.6 233.3,435.9M238.6,420.7C238.9,419.5 239.6,417.8 240,417C240.7,415.8 240.9,415.9 240.9,417.7C240.9,418.9 240.3,420.6 239.5,421.5C238.1,422.8 238,422.7 238.6,420.7M271.5,370.4C271.7,369.5 272,368.6 272,368.4C272,367.5 274.9,368 275.5,369.1C276.3,370.4 274.6,372 272.5,372C271.5,372 271.1,371.3 271.5,370.4M276.5,364.6C276.1,363.1 282.7,352 284.1,352C285.3,352 285.1,357.7 283.8,360.3C282.5,362.9 279.3,366 278,366C277.4,366 276.8,365.3 276.5,364.6M825.6,340.2C821.5,333.7 816.3,325.1 813.8,321C809.1,312.8 807.9,311.5 781.6,286.5C771.8,277.2 763.4,268.6 762.9,267.3C762.4,265.9 761.2,265 760,265C758.9,265 758,264.3 758,263.5C758,262.7 756.7,261.2 755.2,260.2C753.7,259.2 750.9,257 749,255.2C747,253.4 744.5,252 743.3,252C741.9,252 741,251.2 740.6,249.6C739.9,247.1 732.8,241.6 728.9,240.6C727.5,240.3 724.5,238.4 722.1,236.3C718.9,233.6 716.7,232.6 714.1,232.5C711.3,232.4 710.4,231.9 710.1,230.4C709.7,228.1 707.2,225.9 705.6,226.5C705,226.8 703.1,225.7 701.5,224.2C698,221 696,219.7 690,217C687.5,215.9 684.2,214.2 682.7,213.4C681.2,212.5 680,212.2 680,212.5C680,212.9 678.8,212.1 677.5,210.6C674.9,207.7 672.5,207.2 671.5,209.2C671.1,210.2 670.8,210.1 670.3,209.1C668.9,206 665.7,203.8 663.4,204.2C661.9,204.5 658.5,203.4 654.4,201.3C650.8,199.5 646.4,198 644.6,198C642.8,197.9 640.8,197.4 640.2,196.8C639.3,195.9 638.7,195.9 637.5,196.9C635.3,198.7 629.2,197.4 628.4,194.9C627.8,192.8 620.9,190.5 617.7,191.3C616.7,191.6 613.7,190.9 611.1,189.7C603,186.1 578.2,181.3 562.6,180.3C550.9,179.6 547.9,179.7 546.1,181.2C544.9,182.2 544.5,182.2 544.2,181.2C544,180.5 542,180 539.4,180C535.4,180 535,180.2 535,182.4C535,184.3 535.6,184.9 538,185.5C539.7,185.8 540.8,186.4 540.4,186.8C539.6,187.7 528,187.8 528,187C528,186.6 528.8,185.4 529.9,184.5C532.4,182.2 531.2,180.3 527.5,180.5C525.2,180.6 521.3,183 523.4,183C523.9,183 523.5,183.6 522.4,184.4C520.5,185.8 520.5,185.9 522.9,185.9C527.9,186 523.3,187.8 517.5,188.1C511.5,188.3 511.5,188.3 511.8,185.7C512,183.3 511.8,183.1 508.8,183.1C506.9,183.1 504.8,183 504,182.9C503.1,182.8 500.7,182.8 498.5,182.9C496.3,182.9 492.2,182.8 489.5,182.6C486.5,182.5 483.2,183 481.5,183.9C479.8,184.7 476,185.7 473,186C463.5,187.2 450.5,190.2 448.9,191.6C448,192.3 445.7,192.9 443.9,193C441.6,193 440,193.6 439.3,194.8C438.6,195.9 436.6,197 434.8,197.3C423.6,199.2 404.3,204.7 401.5,206.8C399.7,208.2 392.7,210.6 388.5,211.4L384.5,212L387.7,210C389.5,208.9 391,207.5 391,206.9C391,206.2 391.6,206 392.4,206.3C393.8,206.8 398.4,203.9 400.6,201C401.3,200.1 402.1,199.8 402.5,200.2C402.9,200.6 404.5,200.2 406,199.4C407.6,198.6 409.5,198.2 410.4,198.6C411.2,198.9 412,198.7 412,198.2C412,197.2 415.7,195.8 419.3,195.4C420.3,195.3 421.6,194.7 422.2,194.1C422.8,193.5 423.9,192.9 424.6,193C425.3,193 427,191.8 428.5,190.5C430.5,188.7 431.9,188.2 433.9,188.6C436,189 437.3,188.5 439.2,186.6C440.6,185.2 443.1,183.8 444.6,183.4C446.2,183.1 448.7,182.1 450.2,181.3C452.4,180.1 453.4,180 454.5,181C455.6,181.9 456.1,181.8 456.5,180.6C457,179.5 458.4,178.9 460.9,179C463.2,179 465.7,178.1 467.3,176.9C468.8,175.7 470.6,175 471.4,175.3C472.1,175.6 473.2,175.3 473.8,174.7C474.6,173.9 475.3,174 476.4,174.9C477.6,175.9 478.4,175.8 480.8,174.4C483.2,173 484.1,172.9 485.3,173.8C486.4,174.7 486.9,174.7 487.7,173.7C488.3,173 490.7,172.5 493.1,172.6C495.5,172.7 497.9,172.5 498.4,172.2C499.8,171.3 512.3,171.3 513.6,172.2C514.2,172.6 515.2,172.4 515.8,171.6C516.7,170.5 518,170.4 520.7,171C522.8,171.5 527.2,171.6 530.5,171.2C545.6,169.6 570,170.6 580.4,173.4C584.4,174.4 586.7,174.6 587.5,173.9C588.3,173.2 589.1,173.4 589.9,174.4C590.6,175.2 591.7,175.6 592.5,175.3C593.3,175 594.6,175.3 595.4,175.9C596.5,176.8 597.3,176.8 599,175.9C600.5,175.1 601.4,175.1 602.5,176C603.2,176.6 604.7,176.8 605.8,176.5C606.9,176.1 608.1,176.4 608.5,177C608.8,177.5 609.9,177.8 610.9,177.5C611.9,177.1 614.5,177.6 616.7,178.5C618.9,179.3 621.1,180 621.6,179.8C622,179.7 623.1,179.9 624,180.2C626.8,181.3 631.5,182.3 633,182.1C633.9,182 635.2,182.5 635.8,183.3C636.5,184.1 637.9,184.5 638.9,184.3C640.2,183.9 641,184.4 641.4,185.8C641.9,187.4 642.5,187.7 644.3,187C646.8,186.1 648.4,186.5 652.1,189.1C653.6,190.1 655.4,191 656.1,191C658.5,191 672.3,197.8 673.2,199.4C673.7,200.2 674.7,201 675.5,201C676.9,201 678.9,201.8 683,204.1C683.8,204.6 685.1,205.2 686,205.5C686.8,205.8 688.2,206.5 689.2,207C690.1,207.5 691.5,208 692.3,208C693,208 694.5,208.9 695.5,210C696.4,211.1 697.7,212 698.2,212C700.3,211.9 710,217.4 712.5,220C714.1,221.6 715.8,222.6 716.7,222.2C717.5,221.9 719.2,222.8 720.6,224.3C721.9,225.8 723.6,227 724.3,227C726.8,227 730.9,229.5 731.9,231.7C732.5,233 733.7,234.3 734.7,234.6C737.3,235.6 750,245 750,246C750,246.5 750.6,247 751.4,247C752.2,247 753.4,247.9 754,249C754.5,250.1 755.5,251 756.1,251C756.7,251 759.4,253.2 762,256C764.7,258.7 767.5,261 768.3,261C769.1,261 769.9,261.4 770.1,261.8C770.3,262.3 776.6,269.2 784.2,277.1C799.9,293.6 806.5,302 815.6,317.5C819.2,323.5 823.6,330.3 825.4,332.5C828.5,336.3 834.5,350.4 833.5,351.5C833.2,351.7 829.6,346.7 825.6,340.2M291,342.2C291,340.2 293.7,336.3 294.4,337.1C294.7,337.4 294.5,339 294,340.8C292.9,344.2 290.9,345.1 291,342.2M833.5,273.4C832.6,272.5 832,271.2 832,270.4C832,269.7 830.6,268.1 829,267C827.3,265.8 825.7,263.8 825.4,262.6C824.8,260.1 814,249 812.2,249C810.7,249 809,243.5 809.9,242C810.5,241 811.2,241.2 812.8,242.8C814,244 815.3,245 815.8,245C816.3,245 817.3,246.3 817.9,247.9C818.6,249.5 822.4,254 826.3,257.8C834.3,265.7 838.5,270.6 838.4,272C838.1,274.6 837.8,275 836.5,275C835.6,275 834.3,274.2 833.5,273.4M397,145.4C397,145.1 397.4,144 398,142.9C398.9,141.3 399.3,141.2 401,142.2C403.9,144 403.4,146 400,146C398.3,146 397,145.7 397,145.4" style="fill:rgb(26,35,126);"/>
            <path d="M725,868C725,864.8 726.6,864 728.7,866.1C730.2,867.6 728.6,871 726.5,871C725.5,871 725,870 725,868" style="fill:rgb(26,35,126);"/>
            <path d="M627,869.2C627,867.7 629.3,866 631.5,866C632.6,866 634,865.5 634.5,865C635.1,864.4 637.2,863.8 639.2,863.5C642.4,863.1 643,863.3 643,865C643,866.2 641.7,867.5 639.5,868.4C635.8,870 627,870.5 627,869.2" style="fill:rgb(26,35,126);"/>
            <path d="M650,862.5C650,861.6 650.4,861 651,861C651.5,861 652,861.6 652,862.5C652,863.3 651.5,864 651,864C650.4,864 650,863.3 650,862.5" style="fill:rgb(26,35,126);"/>
            <path d="M655.3,860.9C654.4,859.2 656.7,857.3 658.1,858.7C659.3,859.9 658.6,862 657,862C656.4,862 655.7,861.5 655.3,860.9" style="fill:rgb(26,35,126);"/>
            <path d="M751.8,857.7C751.8,857.6 751.6,856.3 751.5,854.9C751.4,852.5 751.7,852.3 754.9,852.4C756.9,852.5 759.6,851.9 761,850.9C762.3,850 764.2,849 765.2,848.6C766.2,848.3 767.4,846.9 767.9,845.5C768.5,844.1 769.4,843 770,843C771.5,843 772.5,846.3 771.1,846.7C770.4,847 766.3,849.6 761.9,852.5C754.9,857.3 752.3,858.6 751.8,857.7" style="fill:rgb(26,35,126);"/>
            <path d="M669.3,855.9C668.5,854.3 669.8,853.4 671,854.8C671.6,855.5 671.6,856.1 671,856.5C670.4,856.7 669.7,856.5 669.3,855.9" style="fill:rgb(26,35,126);"/>
            <path d="M759,846.5C759,845.6 759.4,845 760,845C760.5,845 761,845.6 761,846.5C761,847.3 760.5,848 760,848C759.4,848 759,847.3 759,846.5" style="fill:rgb(26,35,126);"/>
            <path d="M698.4,842.5C701.4,840.7 705.9,837.5 708.3,835.5C710.7,833.6 713.2,832 713.8,832C716.1,832 714.8,835.1 711.8,836.7C710.1,837.7 707.5,839.4 706.1,840.6C702.4,843.5 697.3,846 695,846C693.6,846 694.8,844.8 698.4,842.5" style="fill:rgb(26,35,126);"/>
            <path d="M735.2,844.4C735.5,842.2 737.4,842.1 737.7,844.2C737.8,845.2 737.3,846 736.5,846C735.6,846 735.1,845.3 735.2,844.4" style="fill:rgb(26,35,126);"/>
            <path d="M763.3,843.9C762.7,842.6 764.6,840.2 765.4,841.3C765.7,841.6 765.5,842.6 765,843.5C764.3,844.4 763.7,844.6 763.3,843.9" style="fill:rgb(26,35,126);"/>
            <path d="M772,843C771.3,841.6 771.4,841 772.5,840.6C773.3,840.3 774,839.3 774,838.4C774,837.3 774.5,836.9 775.5,837.3C776.4,837.7 778,838 779,838C781.9,838 781.3,840.2 777.9,842.2C773.1,845 773,845 772,843" style="fill:rgb(26,35,126);"/>
            <path d="M716.3,832.4C716,831.5 716.2,830.3 716.8,829.7C717.6,828.9 718,829.1 718.4,830.3C719.1,832.5 717.2,834.5 716.3,832.4" style="fill:rgb(26,35,126);"/>
            <path d="M786.4,830.9C785.5,829.3 788.1,826.8 790.1,827.3C791.6,827.7 791.8,827.3 791.4,825.6C790.8,823.2 794.8,818.7 798.7,817.5C799.9,817.1 801,816 801,815.1C801,811.9 802.9,811 806,812.8C809.4,814.7 809.7,815.9 807,816.7C805.5,817 804.9,818 804.9,820.3C804.9,822.5 804.7,823 804,822.1C803.1,820.6 802.8,820.7 797.9,825.2C796.8,826.2 795.7,827 795.4,827C795.1,827 793.3,828.1 791.4,829.5C787.5,832.3 787.2,832.4 786.4,830.9" style="fill:rgb(26,35,126);"/>
            <path d="M771,821.1C771,820.2 775.3,817 776.4,817C777.9,817 776.7,818.8 774.8,819.3C773.7,819.6 773,820.3 773.3,820.9C773.7,821.5 773.3,822 772.5,822C771.6,822 771,821.6 771,821.1" style="fill:rgb(26,35,126);"/>
            <path d="M782.5,815.6C782.8,814.9 782.5,813 782,811.5C781,809 781.2,808.3 783.4,806C784.8,804.5 786,802.9 786,802.3C786,800.5 789.5,798 791.9,798C793.3,798 794.3,797.2 794.7,795.9C795,794.7 795.8,794 796.6,794.4C797.5,794.7 799.3,792.9 801.6,789.4C804.2,785.5 805.9,784 807.4,784C808.7,784 810.7,783 812,781.9C813.2,780.8 814.5,780.2 814.9,780.5C815.2,780.9 814.2,782.1 812.7,783.3C811.2,784.5 810,786.3 810,787.2C810,788.1 809.5,789.1 808.9,789.5C808.3,789.9 808,790.8 808.3,791.5C808.7,792.4 807.7,793.1 805.4,793.5C802.9,794 801.2,795.2 799.5,797.7C798.2,799.6 796.2,801.8 795,802.6C793.9,803.4 793,805.2 793,806.5C793,809.6 786.6,817 784,817C782.7,817 782.1,816.5 782.5,815.6" style="fill:rgb(26,35,126);"/>
            <path d="M807,810.1C807,808.1 809.6,804.3 810.7,804.7C811.4,804.9 812,804.3 812,803.4C812,802.4 812.7,801.1 813.7,800.3C814.8,799.5 815,799 814.2,799C813.5,799 813,798.2 813,797.3C813,796.3 813.5,795.9 814.6,796.4C815.5,796.7 816.7,796.6 817.3,796.1C819.2,794.6 823.9,794.2 825.4,795.3C826.7,796.3 826.6,796.8 825,799C823.4,801 822.8,801.2 821.8,800.2C820.3,798.7 817.3,798.6 816.4,800C816,800.6 816.2,801.6 816.9,802.3C817.8,803.2 818.2,803.1 818.8,802.1C819.5,801.1 819.8,801.1 820.8,802.2C821.7,803.3 821.3,804.1 819,805.8C817.4,807 815.8,808 815.4,808C815.1,808 814.2,808.6 813.4,809.5C811.8,811.1 807,811.5 807,810.1" style="fill:rgb(26,35,126);"/>
            <path d="M697.3,797.9C696.5,796.4 699,792 700.6,792C702.6,792 702.2,794.7 700,797C698.7,798.2 697.7,798.6 697.3,797.9" style="fill:rgb(26,35,126);"/>
            <path d="M815,787.5C815,786.7 815.4,785.8 816,785.5C816.5,785.1 817,785.8 817,786.9C817,788 816.5,789 816,789C815.4,789 815,788.3 815,787.5" style="fill:rgb(26,35,126);"/>
            <path d="M839,779.5C839,778.7 837.7,777.7 836.2,777.4C830,776.2 828.5,775.4 828.5,773.4C828.5,771.9 829,771.5 830.8,771.8C832.5,772 834.3,771 836.8,768.6C838.8,766.7 841.8,764.6 843.5,763.9C846,763 846.2,762.7 844.8,761.9C843.4,761.1 843.2,759.8 843.4,755.9C843.8,751.8 843.5,751 842.1,751C841.2,751 839.9,751.9 839.2,753C838.5,754.1 836.7,755.5 835.3,756C832.7,757 832.3,760.3 834.7,760.6C835.4,760.6 836.4,760.8 837,760.8C838.4,761 838.2,763.9 836.7,764.4C830.9,766.2 830,766 830,763.3C830,760.8 829.8,760.7 828.1,762.3C826.4,763.9 820,764.2 820,762.7C820,762.3 820.4,762 821,762C821.5,762 822,761.3 822,760.4C822,759.6 823.1,758.5 824.4,758C825.8,757.4 828,755.3 829.4,753.1C831.1,750.4 833,748.8 835.7,747.9C837.7,747.2 839.8,746 840.3,745.2C841,744 841.4,744.1 843.1,745.6C845,747.3 845.2,747.3 847,744.9C848,743.6 849,742.8 849,743.2C849.4,745 849.2,747.6 848.7,749C847.4,752.3 847.2,756 848.3,755.7C848.9,755.5 849.6,754.4 849.8,753.4C850.2,750.9 850.9,750.3 854.1,749.6C856.3,749.1 856.9,749.4 857.5,751C857.8,752.1 858.6,752.7 859.3,752.3C859.9,752 859.4,752.7 858.1,753.9C856,756 855.9,756.3 857.3,757.1C858.2,757.6 859,758.9 859,759.8C859,761.8 851.2,771 849.5,771C848.9,771 847.8,772.4 847,774.2C846.3,776 845,778.2 844.3,779.2C842.7,781.3 839,781.5 839,779.5" style="fill:rgb(26,35,126);"/>
            <path d="M815.4,773C814.8,771.8 820.9,765.8 822.3,766.3C823.4,766.7 823.6,771.8 822.5,772.6C821.1,773.5 815.9,773.9 815.4,773" style="fill:rgb(26,35,126);"/>
            <path d="M689.5,771.4C688.7,770.3 690.1,768 691.6,768C693.1,768 693.2,768.1 692.5,770.4C692,771.9 690.3,772.5 689.5,771.4" style="fill:rgb(26,35,126);"/>
            <path d="M861.9,751.5C861.1,750.4 861.3,749.8 862.9,749C864.7,748 865,748.2 865,749.9C865,752.5 863.3,753.4 861.9,751.5" style="fill:rgb(26,35,126);"/>
            <path d="M853.5,746.1C853.2,745.6 853.6,744.6 854.5,743.9C855.3,743.2 855.9,741.5 855.7,740.1C855.5,738 855.9,737.4 857.6,737.1C858.8,737 860.5,735.7 861.4,734.4C862.9,732 863.1,732 865.5,733.6C866.8,734.5 868,735.7 868,736.4C868,738.5 862.4,743.1 860.6,742.4C859.5,741.9 858.7,742.5 858,744.3C857,746.9 854.4,747.8 853.5,746.1" style="fill:rgb(26,35,126);"/>
            <path d="M851.1,740.5C851.7,739.6 852.6,739.2 853.1,739.5C854.3,740.3 853.2,742 851.5,742C850.3,742 850.2,741.6 851.1,740.5" style="fill:rgb(26,35,126);"/>
            <path d="M847.3,731.4C846.2,728.7 848.7,724.8 851.2,725.1C853.1,725.4 853.4,726 853.2,728.7C853,731.3 852.4,732.1 850.5,732.5C848.8,732.8 847.7,732.4 847.3,731.4" style="fill:rgb(26,35,126);"/>
            <path d="M853.8,719C852.9,718.3 852.9,717.7 853.9,716.5C855.7,714.3 859.5,714.9 859.2,717.2C858.9,719.2 855.5,720.4 853.8,719" style="fill:rgb(26,35,126);"/>
            <path d="M855.6,679.7C856.2,677.6 859,674.7 859.8,675.4C860,675.6 859.4,677.2 858.5,678.9C856.7,682.4 854.6,683 855.6,679.7" style="fill:rgb(26,35,126);"/>
            <path d="M841,616.4C839.5,615.5 839.7,612.4 841.4,611C843.2,609.5 845,610.5 845,613C845,615.2 842.5,617.3 841,616.4" style="fill:rgb(26,35,126);"/>
            <path d="M843,605.4C841.6,601.9 841.7,601.5 843.9,599.5C846.3,597.4 847.2,598.8 846.5,603.4C845.8,607.9 844.2,608.7 843,605.4" style="fill:rgb(26,35,126);"/>
            <path d="M847.4,574C846.4,572.2 848.2,553.9 849.3,554.3C850,554.5 850.3,556.2 850.2,558C850,559.9 849.9,564.5 849.9,568.2C849.9,574.3 848.9,576.7 847.4,574" style="fill:rgb(26,35,126);"/>
            <path d="M848.5,545.7C848.2,542.8 848,534 848,526.1C848,513 848.1,511.8 849.7,512.1C851.2,512.4 851.5,513.8 851.8,521.5C852.5,541.4 849.9,560.7 848.5,545.7" style="fill:rgb(26,35,126);"/>
            <path d="M846.5,504.8C846.2,503.1 846,500.3 846.1,498.6C846.2,496.3 846.4,496.9 847.1,500.7C847.6,503.6 847.7,506.4 847.5,507C847.2,507.5 846.7,506.5 846.5,504.8" style="fill:rgb(26,35,126);"/>
            <path d="M843.4,476C843.1,475.4 843.1,474.5 843.5,473.9C843.8,473.4 843.2,470.4 842,467.4C840.9,464.4 840,460.9 840,459.8C840,457.6 837,447.8 833.8,439.6C832.8,436.9 832,433.6 832,432.4C832,431.1 831.5,429.8 831,429.5C830.4,429.1 829.5,427 828.9,424.7C828.3,422.3 826.7,418.2 825.5,415.5C824.2,412.7 822.9,409.3 822.5,408C821.1,403.5 813.2,385.6 809.5,378.6C807.3,374.4 806.1,371 806.5,369.8C806.9,368.6 806.6,368 805.6,368C803.8,368 798.5,357.6 799.3,355.5C800.2,353.1 801.6,353.6 804.4,357.3C809.8,364.3 822.6,389.3 825,397.5C825.9,400.8 828.2,406.8 829.9,411C834,420.5 842,449.3 844.1,461.7C845,467 844.4,477.8 843.4,476" style="fill:rgb(26,35,126);"/>
            <path d="M795.5,350.1C795.2,348.4 794.2,346.9 792.6,346.2C791.2,345.6 788.9,343 787.4,340.5C786,338 784.4,336 783.9,336C783.5,336 782.8,334.9 782.4,333.7C782,332.5 780.8,330.2 779.7,328.6C777.9,326.1 777.9,325.6 779.2,324.3C780.4,323 781.5,324 787.7,332.2C794.1,340.6 799,349.1 799,351.9C799,354.3 795.9,352.8 795.5,350.1" style="fill:rgb(26,35,126);"/>
            <path d="M768.5,317.3C767.7,316.2 767.9,312.9 768.7,313C770.6,313 772.2,314.9 771.6,316.3C770.9,318 769.3,318.5 768.5,317.3" style="fill:rgb(26,35,126);"/>
            <path d="M753.7,300.5C752.5,299.2 747.7,294.6 743.2,290.4C737.8,285.4 735.2,282.3 735.9,281.6C737.5,280 758,297 758,300.1C758,303 756.2,303.2 753.7,300.5" style="fill:rgb(26,35,126);"/>
            <path d="M741.5,282.9C738.3,280.6 735.8,279.3 735.5,279.9C734.4,281.6 733.2,281.1 732.6,278.6C731.9,276.1 714.5,264.1 699,255.4C694.3,252.8 686.7,248 682.2,244.8C677.6,241.5 672.6,238.6 671,238.4C665.9,237.8 623.8,220.7 623.9,219.3C623.9,217.6 629,217.9 636.7,220C644.4,222.2 663.2,230.6 695.5,246.4C710.5,253.8 733,267.9 733,270C733,270.4 736.6,274.3 741,278.8C745.4,283.3 748.5,287 748,287C747.4,287 744.5,285.1 741.5,282.9" style="fill:rgb(26,35,126);"/>
            <path d="M432,250C432,249.4 433.1,249 434.5,249C435.8,249 437,249.4 437,250C437,250.5 435.8,251 434.5,251C433.1,251 432,250.5 432,250" style="fill:rgb(26,35,126);"/>
            <path d="M439,247.9C439,247.4 440.2,246.4 441.7,245.9C443.2,245.3 445.1,244.2 445.9,243.5C446.8,242.7 449.3,241.4 451.5,240.6C453.7,239.8 457.9,238.2 461,237C464,235.8 468.6,234.2 471.2,233.4C473.7,232.6 476.1,231.5 476.5,230.9C476.8,230.4 477.8,230 478.6,230C481.4,230 478.3,232.5 473.2,234.5C470.6,235.5 465.3,237.7 461.5,239.5C452.8,243.5 440.1,249 439.5,249C439.2,249 439,248.5 439,247.9" style="fill:rgb(26,35,126);"/>
            <path d="M481,230C481,228.5 482.6,227.9 484.4,228.6C485.6,229 485.8,229.5 485,230.1C483.6,231.2 481,231.2 481,230" style="fill:rgb(26,35,126);"/>
            <path d="M537,123.8C535.5,122 535.7,121 537.5,121C538.3,121 539,121.8 539,123C539,125.2 538.4,125.5 537,123.8" style="fill:rgb(26,35,126);"/>
        </g>
        <g transform="matrix(1.02085,0,0,1.02085,-73.8779,0.576845)">
            <g transform="matrix(170,0,0,170,340.189,150.166)">
                <path d="M0.217,0.249C0.174,0.249 0.14,0.244 0.114,0.234C0.087,0.223 0.068,0.208 0.056,0.189C0.044,0.169 0.038,0.145 0.038,0.117C0.038,0.092 0.045,0.07 0.059,0.051C0.073,0.032 0.093,0.018 0.118,0.008L0.173,0.014C0.158,0.027 0.147,0.039 0.142,0.052C0.136,0.064 0.133,0.078 0.133,0.095C0.133,0.127 0.141,0.151 0.158,0.168C0.175,0.184 0.203,0.192 0.243,0.192C0.286,0.192 0.32,0.182 0.345,0.162C0.37,0.141 0.382,0.117 0.382,0.09C0.382,0.075 0.378,0.063 0.371,0.054C0.363,0.045 0.348,0.038 0.326,0.034C0.304,0.029 0.272,0.027 0.229,0.027C0.2,0.027 0.175,0.025 0.154,0.023C0.133,0.02 0.116,0.015 0.103,0.008C0.09,0 0.08,-0.009 0.074,-0.021C0.068,-0.032 0.065,-0.047 0.065,-0.065C0.065,-0.089 0.072,-0.111 0.085,-0.132C0.098,-0.153 0.115,-0.171 0.135,-0.187L0.181,-0.161C0.169,-0.151 0.16,-0.141 0.155,-0.133C0.149,-0.124 0.146,-0.115 0.146,-0.108C0.146,-0.096 0.15,-0.087 0.158,-0.082C0.165,-0.076 0.18,-0.072 0.202,-0.071C0.223,-0.069 0.254,-0.068 0.294,-0.068C0.337,-0.068 0.372,-0.064 0.399,-0.057C0.426,-0.05 0.445,-0.038 0.458,-0.022C0.471,-0.005 0.477,0.017 0.477,0.046C0.477,0.07 0.471,0.094 0.458,0.119C0.445,0.143 0.428,0.165 0.405,0.184C0.382,0.203 0.354,0.219 0.322,0.231C0.29,0.243 0.255,0.249 0.217,0.249ZM0.244,-0.139C0.209,-0.139 0.177,-0.145 0.148,-0.157C0.119,-0.169 0.096,-0.187 0.079,-0.211C0.062,-0.235 0.053,-0.265 0.053,-0.301C0.053,-0.333 0.06,-0.361 0.074,-0.386C0.088,-0.411 0.109,-0.43 0.137,-0.445C0.165,-0.46 0.199,-0.467 0.24,-0.467C0.275,-0.467 0.305,-0.462 0.33,-0.451C0.354,-0.44 0.374,-0.426 0.39,-0.409C0.406,-0.392 0.418,-0.374 0.425,-0.355C0.432,-0.336 0.435,-0.319 0.435,-0.304C0.435,-0.274 0.428,-0.246 0.414,-0.221C0.399,-0.196 0.378,-0.176 0.35,-0.161C0.321,-0.146 0.286,-0.139 0.244,-0.139ZM0.256,-0.189C0.277,-0.189 0.295,-0.198 0.308,-0.216C0.321,-0.233 0.328,-0.259 0.328,-0.293C0.328,-0.328 0.32,-0.358 0.304,-0.383C0.287,-0.408 0.264,-0.42 0.234,-0.42C0.209,-0.42 0.19,-0.409 0.178,-0.388C0.166,-0.367 0.16,-0.342 0.16,-0.314C0.16,-0.274 0.169,-0.243 0.186,-0.222C0.202,-0.2 0.226,-0.189 0.256,-0.189ZM0.486,-0.392C0.475,-0.395 0.463,-0.397 0.449,-0.4C0.434,-0.403 0.42,-0.405 0.407,-0.407C0.393,-0.409 0.381,-0.41 0.37,-0.411L0.292,-0.458L0.478,-0.458C0.481,-0.449 0.484,-0.438 0.485,-0.427C0.486,-0.415 0.486,-0.403 0.486,-0.392Z" style="fill:rgb(92,107,192);fill-rule:nonzero;"/>
            </g>
            <g transform="matrix(170,0,0,170,428.929,150.166)">
                <path d="M0.259,0.009C0.209,0.009 0.168,-0.002 0.136,-0.023C0.103,-0.044 0.079,-0.073 0.063,-0.109C0.046,-0.145 0.038,-0.185 0.038,-0.228C0.038,-0.272 0.047,-0.312 0.064,-0.348C0.081,-0.384 0.106,-0.413 0.139,-0.435C0.171,-0.456 0.209,-0.467 0.253,-0.467C0.298,-0.467 0.334,-0.458 0.361,-0.439C0.388,-0.42 0.409,-0.395 0.423,-0.364C0.436,-0.333 0.444,-0.297 0.446,-0.258C0.443,-0.243 0.438,-0.23 0.429,-0.22L0.375,-0.22C0.352,-0.22 0.326,-0.22 0.298,-0.22C0.269,-0.219 0.24,-0.219 0.211,-0.218C0.181,-0.217 0.153,-0.215 0.127,-0.214L0.127,-0.269L0.333,-0.269C0.333,-0.313 0.326,-0.348 0.311,-0.375C0.296,-0.402 0.274,-0.415 0.246,-0.415C0.23,-0.415 0.215,-0.41 0.2,-0.4C0.185,-0.39 0.173,-0.373 0.164,-0.35C0.155,-0.326 0.15,-0.293 0.15,-0.251C0.15,-0.218 0.154,-0.186 0.163,-0.156C0.172,-0.125 0.186,-0.1 0.207,-0.082C0.228,-0.063 0.257,-0.053 0.295,-0.053C0.317,-0.053 0.339,-0.058 0.361,-0.067C0.382,-0.076 0.401,-0.09 0.418,-0.107C0.423,-0.104 0.428,-0.099 0.434,-0.092C0.439,-0.085 0.441,-0.078 0.442,-0.071C0.419,-0.042 0.392,-0.022 0.362,-0.01C0.331,0.003 0.297,0.009 0.259,0.009Z" style="fill:rgb(92,107,192);fill-rule:nonzero;"/>
            </g>
            <g transform="matrix(170,0,0,170,511.379,150.166)">
                <path d="M0.11,-0.212L0.11,-0.316C0.11,-0.333 0.109,-0.347 0.106,-0.358C0.102,-0.368 0.096,-0.376 0.085,-0.381C0.074,-0.386 0.058,-0.389 0.036,-0.39C0.036,-0.398 0.037,-0.406 0.038,-0.413C0.039,-0.42 0.042,-0.427 0.045,-0.433C0.07,-0.434 0.097,-0.438 0.126,-0.445C0.155,-0.452 0.177,-0.459 0.192,-0.467C0.199,-0.464 0.204,-0.46 0.209,-0.453C0.214,-0.446 0.216,-0.435 0.216,-0.42L0.11,-0.212ZM0.518,-0.132C0.518,-0.098 0.523,-0.075 0.532,-0.063C0.541,-0.051 0.555,-0.045 0.575,-0.045C0.577,-0.038 0.578,-0.031 0.579,-0.024C0.58,-0.017 0.58,-0.008 0.58,0.003C0.565,0.002 0.548,0.001 0.528,0.001C0.508,0 0.488,-0 0.467,-0C0.453,-0 0.438,0 0.423,0.001C0.407,0.001 0.392,0.001 0.378,0.002C0.364,0.002 0.352,0.002 0.341,0.003C0.341,-0.007 0.341,-0.016 0.342,-0.024C0.343,-0.032 0.344,-0.039 0.347,-0.045C0.369,-0.045 0.385,-0.051 0.396,-0.064C0.407,-0.077 0.412,-0.1 0.412,-0.134L0.412,-0.273C0.412,-0.319 0.404,-0.35 0.388,-0.367C0.372,-0.384 0.351,-0.392 0.324,-0.392C0.307,-0.392 0.291,-0.386 0.274,-0.375C0.257,-0.364 0.244,-0.346 0.233,-0.322C0.222,-0.298 0.216,-0.266 0.216,-0.227L0.216,-0.132C0.216,-0.099 0.221,-0.076 0.231,-0.064C0.24,-0.051 0.257,-0.045 0.281,-0.045C0.284,-0.038 0.285,-0.031 0.286,-0.024C0.287,-0.016 0.287,-0.007 0.287,0.003C0.278,0.002 0.266,0.002 0.252,0.002C0.238,0.001 0.223,0.001 0.208,0.001C0.193,0 0.178,-0 0.163,-0C0.149,-0 0.134,0 0.119,0.001C0.103,0.001 0.088,0.001 0.073,0.002C0.058,0.002 0.046,0.002 0.036,0.003C0.036,-0.007 0.037,-0.016 0.038,-0.025C0.039,-0.033 0.04,-0.04 0.042,-0.045C0.068,-0.045 0.086,-0.051 0.096,-0.064C0.105,-0.076 0.11,-0.099 0.11,-0.132L0.11,-0.316L0.216,-0.42C0.216,-0.412 0.216,-0.403 0.215,-0.393C0.214,-0.383 0.211,-0.372 0.208,-0.361C0.211,-0.366 0.213,-0.371 0.216,-0.376C0.219,-0.381 0.222,-0.387 0.227,-0.393C0.239,-0.408 0.257,-0.424 0.282,-0.439C0.307,-0.454 0.336,-0.462 0.37,-0.462C0.396,-0.462 0.42,-0.457 0.443,-0.447C0.466,-0.436 0.484,-0.419 0.498,-0.396C0.511,-0.372 0.518,-0.34 0.518,-0.299L0.518,-0.132Z" style="fill:rgb(92,107,192);fill-rule:nonzero;"/>
            </g>
            <g transform="matrix(170,0,0,170,616.099,150.166)">
                <path d="M0.039,0.249C0.033,0.246 0.027,0.241 0.023,0.235C0.017,0.229 0.014,0.222 0.013,0.214C0.038,0.186 0.058,0.16 0.072,0.137C0.086,0.114 0.096,0.09 0.101,0.065C0.106,0.04 0.109,0.011 0.109,-0.022L0.109,-0.319C0.109,-0.335 0.108,-0.348 0.105,-0.359C0.101,-0.369 0.095,-0.377 0.084,-0.382C0.073,-0.387 0.057,-0.39 0.035,-0.39C0.035,-0.398 0.036,-0.406 0.037,-0.413C0.038,-0.42 0.041,-0.427 0.044,-0.433C0.058,-0.433 0.075,-0.435 0.095,-0.438C0.114,-0.441 0.133,-0.446 0.151,-0.451C0.169,-0.456 0.182,-0.462 0.191,-0.467C0.198,-0.464 0.203,-0.46 0.208,-0.453C0.213,-0.446 0.215,-0.436 0.215,-0.423L0.215,-0.041C0.215,-0.004 0.21,0.03 0.2,0.061C0.189,0.092 0.175,0.119 0.158,0.143C0.141,0.167 0.122,0.188 0.101,0.206C0.08,0.223 0.06,0.238 0.039,0.249ZM0.153,-0.57C0.134,-0.57 0.118,-0.576 0.106,-0.588C0.093,-0.599 0.087,-0.614 0.087,-0.631C0.087,-0.651 0.094,-0.667 0.107,-0.679C0.12,-0.691 0.136,-0.697 0.154,-0.697C0.175,-0.697 0.191,-0.691 0.203,-0.679C0.215,-0.667 0.221,-0.651 0.221,-0.632C0.221,-0.615 0.215,-0.601 0.202,-0.589C0.189,-0.576 0.172,-0.57 0.153,-0.57Z" style="fill:rgb(92,107,192);fill-rule:nonzero;"/>
            </g>
            <g transform="matrix(170,0,0,170,665.569,150.166)">
                <path d="M0.271,0.009C0.224,0.009 0.183,-0.001 0.148,-0.021C0.113,-0.04 0.086,-0.068 0.067,-0.103C0.048,-0.138 0.038,-0.18 0.038,-0.228C0.038,-0.275 0.048,-0.316 0.069,-0.352C0.089,-0.388 0.117,-0.416 0.152,-0.437C0.187,-0.457 0.227,-0.467 0.272,-0.467C0.322,-0.467 0.364,-0.457 0.399,-0.437C0.434,-0.417 0.46,-0.389 0.478,-0.354C0.496,-0.319 0.505,-0.277 0.505,-0.23C0.505,-0.184 0.495,-0.143 0.476,-0.107C0.457,-0.07 0.43,-0.042 0.395,-0.022C0.36,-0.001 0.318,0.009 0.271,0.009ZM0.281,-0.044C0.318,-0.044 0.346,-0.06 0.364,-0.092C0.382,-0.123 0.391,-0.164 0.391,-0.215C0.391,-0.256 0.385,-0.292 0.374,-0.323C0.362,-0.353 0.346,-0.376 0.327,-0.392C0.307,-0.407 0.285,-0.415 0.262,-0.415C0.225,-0.415 0.198,-0.4 0.18,-0.369C0.162,-0.338 0.153,-0.299 0.153,-0.251C0.153,-0.208 0.158,-0.171 0.169,-0.14C0.179,-0.109 0.194,-0.085 0.213,-0.069C0.232,-0.052 0.255,-0.044 0.281,-0.044Z" style="fill:rgb(92,107,192);fill-rule:nonzero;"/>
            </g>
        </g>
    </g>
</svg>
